<svg xmlns="http://www.w3.org/2000/svg" xmlns:xlink="http://www.w3.org/1999/xlink" x="0px" y="0px" viewBox="0 0 50 50" style="enable-background:new 0 0 50 50;" xml:space="preserve">
    <path d="M35.462,24.278l-4.59-4.59c-0.254-0.254-0.675-0.246-0.939,0.018c-0.264,0.264-0.273,0.685-0.018,0.939l3.485,3.485
        l-18.357,0.448c-0.241,0-0.468,0.13-0.594,0.341c-0.125,0.211-0.129,0.469-0.01,0.673c0.119,0.205,0.343,0.325,0.584,0.313
        l18.336-0.446l-3.61,3.61c-0.264,0.264-0.273,0.685-0.018,0.939c0.254,0.254,0.675,0.246,0.939-0.018l4.773-4.773
        C35.708,24.953,35.716,24.532,35.462,24.278L35.462,24.278z"/>
</svg>
