<svg xmlns="http://www.w3.org/2000/svg" xmlns:xlink="http://www.w3.org/1999/xlink" x="0px" y="0px" viewBox="0 0 37 25" style="enable-background:new 0 0 37 25;" xml:space="preserve">
    <g>
        <path d="M28.612,4.03H9.088C7.403,4.03,6.038,5.396,6.037,7.08v11.391c0.001,1.685,1.366,3.05,3.051,3.051h19.524
            c1.685,0,3.05-1.366,3.051-3.051V7.08C31.661,5.396,30.296,4.03,28.612,4.03L28.612,4.03z M9.088,5.25h19.524
            c0.879,0.002,1.633,0.626,1.8,1.488L18.85,13.182L7.288,6.738C7.455,5.876,8.209,5.252,9.088,5.25L9.088,5.25z M28.612,20.296
            H9.088c-1.01-0.003-1.827-0.821-1.83-1.83V8.118l11.293,6.296c0.092,0.05,0.194,0.078,0.299,0.08
            c0.105,0.001,0.208-0.026,0.299-0.08l11.293-6.296v10.348C30.441,19.476,29.622,20.295,28.612,20.296L28.612,20.296z
            M28.612,20.296"/>
    </g>
</svg>
