<svg xmlns="http://www.w3.org/2000/svg" xmlns:xlink="http://www.w3.org/1999/xlink" x="0px" y="0px" viewBox="0 0 239.89 97.276" style="enable-background:new 0 0 239.89 97.276;" xml:space="preserve">
    <g>
        <path d="M41.641,32.685c-1.886-3.768-4.557-6.022-8.171-6.89c-1.53-0.365-3.182-0.62-4.865-0.041
            c-1.197,0.418-1.721,1.126-1.753,2.366l-0.046,1.799c-0.166,6.452-0.336,13.126-0.609,19.682
            c-0.216,5.223-0.441,11.415-0.478,17.707c-0.002,0.142-0.025,0.287-0.046,0.43l-0.039,0.277c-0.005,0.037-0.007,0.071-0.007,0.106
            v5.329c0,0.471,0.37,0.86,0.841,0.882l0.253,0.007c0.144,0.005,0.292,0.01,0.434,0.025c0.767,0.085,1.505,0.129,2.219,0.129
            c1.663,0,3.191-0.236,4.624-0.714c3.566-1.183,6.159-3.689,7.925-7.662c1.838-4.136,2.311-8.497,2.518-11.832
            c0.324-5.187,0.198-9.425-0.393-13.333C43.527,37.516,42.785,34.966,41.641,32.685 M39.19,53.01
            c-0.232,3.878-0.758,7.002-1.652,9.834c-0.588,1.863-1.419,3.986-3.136,5.624c-1.026,0.98-2.191,1.49-3.627,1.548
            c0.207-5.589,0.395-11.18,0.582-16.772l0.091-2.699c0.007-0.041,0.012-0.085,0.014-0.126l0.143-4.05
            c0.183-5.162,0.367-10.319,0.537-15.513c1.689,0.423,3.039,1.477,4.121,3.216c1.098,1.762,1.822,3.832,2.348,6.714
            C39.277,44.407,39.465,48.406,39.19,53.01"/>
        <path d="M145.563,33.22c-0.344-3.368-2.074-5.952-4.999-7.474c-2.747-1.434-5.634-1.345-8.101-1.072
            c-1.057,0.12-1.845,0.834-2.156,1.962c-0.222,0.807-0.245,1.597-0.268,2.443c-0.161,5.77-0.313,11.538-0.464,17.306l-0.154,5.769
            v0.002c-0.196,8.347-0.274,16.018-0.243,23.566c-0.016,0.272-0.044,0.727,0.271,1.172c0.48,0.691,1.56,1.151,2.538,1.151
            c0.255,0,0.501-0.03,0.731-0.096c0.666-0.194,1.467-0.761,1.502-2.368l0.091-4.641c0.107-5.256,0.209-10.512,0.338-15.771
            c0.019-0.842,0.116-1.683,0.209-2.522l0.081-0.737c1.541,0.003,2.561,0.691,3.191,2.148c0.494,1.144,0.762,2.444,0.87,4.218
            c0.198,3.284,0.37,6.572,0.54,9.859l0.183,3.515c0.031,0.595,0.093,1.835,1.386,2.18c1.004,0.266,2.302,0.457,3.448-0.462
            c0.786-0.629,0.665-1.56,0.588-2.15c-0.326-2.603-0.392-5.286-0.46-7.88c-0.029-1.258-0.061-2.515-0.119-3.771
            c-0.105-2.222-0.374-4.175-0.824-5.969c-0.453-1.803-1.372-3.42-3.01-5.246c1.312-1.053,2.362-2.403,3.129-4.022
            C145.432,41.01,145.988,37.375,145.563,33.22 M135.077,45.687c-0.014,0-0.025,0-0.037,0.002v-0.062
            c0-2.021,0.092-4.039,0.183-6.055l0.067-1.473c0.125-2.392,0.184-4.858,0.182-7.544c0-0.406,0.071-0.705,0.198-0.82
            c0.128-0.116,0.459-0.163,0.897-0.116c1.328,0.134,2.266,0.865,2.952,2.298c0.726,1.517,0.917,3.194,0.602,5.282
            c-0.432,2.876-1.139,4.927-2.295,6.645C136.978,45.106,136.156,45.657,135.077,45.687"/>
        <path d="M213.909,47.208c-0.25-4.342-0.574-8.681-0.919-13.014c-0.144-1.826-0.455-4.201-1.571-6.379
            c-1.033-2.012-2.511-3.083-4.395-3.181c-3.085-0.155-5.823,0.882-8.14,3.076c-4.593,4.342-6.166,12.262-3.658,18.421
            c1.803,4.429,5.697,6.124,10.677,4.64c0.712-0.211,1.328-0.621,1.78-1.183c0.43-0.528,0.853-1.436,0.437-2.761
            c-0.352-1.133-1.451-1.109-1.874-1.102h-0.221c-0.926-0.058-1.783,0.119-2.612,0.291l-0.756,0.147
            c-0.661,0.119-1.215-0.039-1.709-0.489c-0.521-0.474-0.852-1.121-1.077-2.098c-0.832-3.661-0.143-7.215,2.108-10.863
            c0.683-1.105,1.454-1.84,2.356-2.244c0.856-0.382,1.493-0.499,1.814-0.331c0.308,0.154,0.566,0.677,0.746,1.509
            c0.287,1.339,0.449,2.741,0.603,4.098c0.075,0.657,0.151,1.317,0.238,1.971c0.652,4.813,0.944,9.715,0.869,14.566v0.01
            l-0.003,0.515c-0.022,4.075-0.046,8.286-0.627,12.372l-0.112,0.813c-0.198,1.47-0.384,2.858-0.922,4.149
            c-0.321,0.772-0.656,1.231-0.969,1.328c-0.312,0.103-0.85-0.092-1.557-0.542l-0.197-0.127c-0.49-0.317-1.041-0.675-1.707-0.868
            c-1.213-0.356-2.493-0.002-3.095,0.864c-0.595,0.861-0.478,2.161,0.278,3.092c1.378,1.695,3.138,2.733,5.093,3
            c0.303,0.044,0.601,0.064,0.895,0.064c2.004,0,3.732-0.973,5.032-2.848c1.546-2.236,2.021-4.832,2.281-7.078
            c0.14-1.197,0.248-2.398,0.353-3.6c0.113-1.266,0.228-2.531,0.377-3.792C214.265,55.127,214.106,50.626,213.909,47.208"/>
        <path d="M77.81,45.933c-0.588-0.812-1.174-1.62-1.728-2.451c-1.431-2.149-2.905-4.76-2.995-7.831c-0.048-1.539,0-3.178,0.661-4.705
            c0.46-1.052,1.094-1.436,2.119-1.42c0.718,0.032,1.256,0.344,1.693,0.988c0.137,0.2,0.259,0.411,0.381,0.622
            c0.253,0.437,0.512,0.89,0.905,1.306c0.772,0.815,1.829,1.06,2.991,0.683c1.376-0.447,1.454-1.821,1.479-2.276
            c0.065-1.181-0.273-2.258-1.008-3.197c-1.264-1.615-3.058-2.686-5.488-3.274c-2.697-0.647-5.008,0.237-6.694,2.566
            c-1.507,2.077-2.316,4.516-2.403,7.246c-0.078,2.423,0.503,4.94,1.774,7.697c1.044,2.266,2.398,4.36,3.705,6.384l1.004,1.569
            c1.251,1.981,2.242,3.671,3.002,5.484c1.163,2.772,1.431,5.738,1.541,8.276l0.007,0.554c0.005,0.382,0.012,0.764-0.009,1.146
            c-0.101,1.695-0.331,3.481-1.334,5.031c-0.515,0.794-1.142,1.236-1.978,1.394c-0.373,0.064-0.565,0.003-0.788-0.266
            c-0.441-0.529-0.687-1.181-0.825-2.182c-0.057-0.43-0.083-0.862-0.11-1.294c-0.048-0.78-0.099-1.585-0.317-2.401
            c-0.37-1.376-1.397-2.179-2.656-2.007c-1.378,0.179-2.602,1.436-2.621,2.685c-0.039,2.697,0.485,5.013,1.604,7.073
            c0.99,1.822,2.513,3.017,4.291,3.364c0.354,0.068,0.707,0.103,1.063,0.103c1.415,0,2.838-0.538,4.089-1.567
            c2.978-2.44,4.666-5.749,5.018-9.834c0.434-5.072-0.683-10.069-3.32-14.856C79.962,48.906,78.867,47.394,77.81,45.933"/>
        <path d="M96.93,45.719c-0.542-0.747-1.082-1.491-1.599-2.254c-2.389-3.515-3.319-6.652-2.928-9.878
            c0.142-1.155,0.287-2.106,0.753-2.947c0.471-0.848,1.1-1.192,2.022-1.114c0.721,0.057,1.24,0.37,1.633,0.979l0.312,0.503
            c0.255,0.415,0.51,0.829,0.804,1.215c0.747,0.976,2.114,1.344,3.244,0.885c1.401-0.568,1.415-1.983,1.42-2.518
            c0.004-1.082-0.341-2.075-1.027-2.95c-1.252-1.594-3.026-2.657-5.424-3.253c-2.75-0.687-5.102,0.226-6.807,2.626
            c-1.463,2.059-2.253,4.454-2.347,7.116c-0.085,2.449,0.496,4.99,1.78,7.77c1.034,2.237,2.366,4.307,3.657,6.31l0.907,1.415
            c1.124,1.771,2.291,3.673,3.145,5.708c1.154,2.757,1.427,5.732,1.539,8.282l0.005,0.528c0.007,0.368,0.014,0.735-0.007,1.105
            c-0.096,1.716-0.324,3.524-1.344,5.095c-0.523,0.807-1.169,1.25-2.03,1.393c-0.315,0.052-0.49-0.003-0.703-0.251
            c-0.458-0.526-0.713-1.19-0.85-2.221c-0.058-0.421-0.083-0.848-0.111-1.273c-0.045-0.762-0.094-1.553-0.305-2.355
            c-0.37-1.387-1.364-2.182-2.577-2.067c-1.404,0.127-2.697,1.418-2.713,2.709c-0.035,2.735,0.503,5.067,1.644,7.134
            c0.981,1.776,2.495,2.943,4.26,3.286c0.351,0.068,0.707,0.103,1.063,0.103c1.401,0,2.805-0.526,4.039-1.53
            c3.009-2.449,4.711-5.776,5.06-9.887c0.439-5.233-0.749-10.356-3.533-15.222C99.016,48.597,97.956,47.134,96.93,45.719"/>
        <path d="M184.889,44.525c2.996-2.47,4.965-5.268,6.008-8.534c1.454-4.556-0.345-8.399-4.694-10.029
            c-2.126-0.8-4.532-1.072-7.369-0.862c-0.584,0.048-1.27,0.135-1.944,0.434c-1.233,0.545-1.684,1.697-1.146,2.935
            c0.763,1.772,2.148,2.491,4.016,2.084c1.702-0.367,2.995-0.353,4.19,0.03c1.323,0.425,1.875,1.227,1.787,2.596
            c-0.067,1.027-0.411,2.042-1.082,3.196c-1.047,1.8-2.493,3.266-4.02,4.816l-0.581,0.593c-0.591,0.599-1.202,1.218-1.685,1.992
            c-0.667,1.072-0.535,1.979,0.415,2.853c0.528,0.489,1.114,0.818,1.681,1.137l0.356,0.199c1.461,0.846,3.103,1.919,4.202,3.474
            c3.37,4.762,3.96,10.029,1.757,15.657c-0.609,1.565-1.537,2.702-2.754,3.382c-1.792,0.995-3.088,1.02-4.333,0.076
            c-0.413-0.312-0.908-0.533-1.473-0.65c-0.948-0.191-1.881,0.076-2.485,0.722c-0.602,0.647-0.806,1.591-0.544,2.524
            c0.348,1.259,1.265,2.136,2.721,2.609c1.211,0.396,2.399,0.591,3.547,0.591c2.454,0,4.735-0.893,6.724-2.658
            c3.23-2.864,5.045-6.829,5.392-11.782c0.347-4.907-1.154-9.448-4.461-13.501C187.947,46.983,186.559,45.703,184.889,44.525"/>
        <path d="M63.841,71.381c-0.884-0.285-1.732-0.224-2.605-0.129c-2.249,0.253-4.321,0.34-6.414,0.262
            c0.067-4.916,0.118-9.834,0.154-14.845c1.854-0.245,3.708-0.517,5.555-0.817c1.433-0.24,2.437-0.933,2.981-2.066
            c0.338-0.705,0.248-1.267,0.111-1.614c-0.138-0.352-0.457-0.834-1.197-1.126c-0.763-0.301-1.507-0.253-2.134-0.165
            c-1.792,0.25-3.579,0.519-5.449,0.815c0.012-2.336,0.009-4.672,0.009-7.011l-0.002-2.491c0-0.251-0.106-0.479-0.278-0.642
            l0.002-1.85c0.005-2.303,0.007-4.608-0.011-7.05c2.109,0.03,4.217,0.021,6.321,0.009l0.306-0.002
            c1.206-0.002,2.189-0.377,2.924-1.107c1.248-1.238,0.591-2.281,0.356-2.572c-0.521-0.651-1.396-1.579-2.814-1.498
            c-2.076,0.022-4.15,0.02-6.234,0.013l-2.839-0.002c-1.048,0.002-1.926,0.33-2.539,0.953c-0.609,0.621-0.923,1.496-0.91,2.532
            c0.037,2.938,0.085,5.876,0.134,8.814l0.54,33.969c0.025,1.553,0.344,1.925,1.904,2.198c1.629,0.284,3.313,0.427,5.141,0.427
            c1.296,0,2.665-0.071,4.137-0.214c1.016-0.099,2.194-0.243,3.304-0.712c0.346-0.144,1.162-0.482,1.258-1.47
            C65.66,72.839,64.942,71.741,63.841,71.381"/>
        <path d="M122.874,71.385c-0.887-0.292-1.743-0.229-2.609-0.133c-2.279,0.255-4.344,0.335-6.43,0.26
            c0.069-4.928,0.117-9.856,0.154-14.84c1.849-0.253,3.698-0.521,5.536-0.818c1.337-0.211,2.318-0.843,2.911-1.877
            c0.443-0.774,0.36-1.397,0.213-1.782c-0.149-0.391-0.509-0.914-1.376-1.202c-0.74-0.248-1.465-0.188-2.024-0.108
            c-1.782,0.253-3.562,0.521-5.389,0.815c0.007-2.334,0.007-4.668,0.005-7.002v-2.489c0-0.256-0.108-0.482-0.281-0.645l0.003-1.942
            c0.002-2.293,0.004-4.585-0.007-6.967c2.205,0.023,4.408,0.016,6.613,0.006c1.206-0.006,2.19-0.374,2.922-1.095
            c1.257-1.234,0.61-2.277,0.382-2.566c-0.515-0.657-1.272-1.516-2.812-1.516c-2.049,0.018-4.103,0.011-6.152,0.011l-2.924-0.002
            c-1.054,0.002-1.937,0.333-2.552,0.955c-0.609,0.619-0.924,1.487-0.91,2.516c0.044,3.258,0.097,6.515,0.149,9.773l0.526,33.009
            c0.026,1.57,0.343,1.942,1.889,2.21c1.631,0.287,3.317,0.43,5.147,0.43c1.296,0,2.663-0.071,4.131-0.214
            c1.018-0.096,2.197-0.238,3.313-0.709c0.374-0.159,1.155-0.487,1.26-1.443C124.693,72.86,123.981,71.753,122.874,71.385"/>
        <path d="M163.024,26.133c-0.685-0.409-1.475-0.641-2.35-0.687c-2.435-0.128-4.834-0.147-7.289-0.126
            c-0.997-0.002-1.989-0.002-2.984-0.009h-0.037c-0.689,0-1.394,0.149-2.097,0.445c-1.211,0.503-1.535,1.926-1.436,3.088
            c0.12,1.349,1.401,1.568,1.955,1.663c1.107,0.192,2.187,0.138,3.234,0.092l0.635-0.028v0.023l0.337,11.603
            c0.136,4.36,0.276,8.718,0.419,13.078l0.128,3.979c0.103,3.186,0.205,6.37,0.319,9.554c0.056,1.587,0.634,2.23,2.208,2.463
            c0.158,0.022,0.314,0.034,0.466,0.034c0.637,0,1.202-0.202,1.624-0.588c0.517-0.476,0.776-1.186,0.73-2.001
            c-0.029-0.581-0.054-1.167-0.07-1.751l-0.497-17.263c-0.002-0.037-0.004-0.076-0.011-0.11l-0.354-11.582
            c-0.074-2.523-0.15-5.043-0.232-7.634c1.385,0.021,2.781,0.009,4.176,0.002c1.145-0.007,2.05-0.654,2.309-1.644
            C164.453,27.815,163.931,26.67,163.024,26.133"/>
    </g>
</svg>
