<?xml version="1.0" encoding="utf-8"?>
<!-- Generator: Adobe Illustrator 26.3.1, SVG Export Plug-In . SVG Version: 6.00 Build 0)  -->
<svg version="1.1" id="레이어_1" xmlns="http://www.w3.org/2000/svg" xmlns:xlink="http://www.w3.org/1999/xlink" x="0px"
	 y="0px" viewBox="0 0 209.2 209.2" style="enable-background:new 0 0 209.2 209.2;" xml:space="preserve">
<style type="text/css">
	.st0{fill-rule:evenodd;clip-rule:evenodd;fill:#6FBA2C;}
	.st1{fill-rule:evenodd;clip-rule:evenodd;fill:#FFFFFF;}
	.st2{fill:#C9DD75;}
	.st3{fill:#FFFFFF;}
</style>
<path class="st0" d="M104.6,0c57.8,0,104.6,46.8,104.6,104.6c0,57.8-46.8,104.6-104.6,104.6C46.8,209.2,0,162.4,0,104.6
	C0,46.8,46.8,0,104.6,0"/>
<path class="st1" d="M104.6,34.2c38.9,0,70.4,31.5,70.4,70.4c0,38.9-31.5,70.4-70.4,70.4c-38.9,0-70.4-31.5-70.4-70.4
	C34.2,65.7,65.7,34.2,104.6,34.2"/>
<path class="st0" d="M104.6,48.5c31,0,56.1,25.1,56.1,56.1c0,31-25.1,56.1-56.1,56.1c-31,0-56.1-25.1-56.1-56.1
	C48.5,73.6,73.6,48.5,104.6,48.5"/>
<path class="st2" d="M116,98.5L116,98.5c0.5,0.2,2.4-0.4,2.5-0.7c-0.8-0.1-1.5-0.2-2,0.5C116.3,98.3,115.7,98.4,116,98.5
	 M116.3,150.7L116.3,150.7c0.2-0.5-0.8-0.5-0.9-0.5C115.2,150.6,116.2,150.8,116.3,150.7z M115.6,88.1L115.6,88.1
	c0.4-2.5-1.3-0.1-1.4,0.7c-0.2,2.3-1.3,4.5-2.3,6.3c-0.8,1.4,0.2,0.8,0.9,0.3c0.2,0.6,0.7,0.9,1,0.2c-1.3-0.4,0.4-3.1,0.5-2.4
	c0.3,1.6,1.6-2,1.2-2.7C114.8,89.2,115.6,89.1,115.6,88.1z M111.2,97.1 M115.6,98.4L115.6,98.4c-0.3-0.1-1.1-0.4-1.2-0.3
	c-1.5,0.8-1.8-0.6-2.4-1.5c-0.1,0.1-0.5,0.4-0.8,0.6c-0.1,0.5-0.7,1.7-1.5,1.7c-0.2-0.5-1.3-0.9-0.7-0.3c-0.2,0.6-0.5,0.3-0.9,0.6
	c-0.7,0.6-0.5,2.2,0.7,1.4c0.3-0.2,0.1-1.8,0.8-0.9c0.8,0,1.4-0.1,1.3,0.3c1.4,1,0.3,1.6,1.5,0c0.6,0,0.9,0.4,1.4,0.5
	c0.1-0.4,1.5-1.2,0-1.2C113.8,98.8,115.5,99,115.6,98.4z M119.6,96.2L119.6,96.2c-0.5,0.1-0.7,0.3-1,0.7
	C119.7,97.1,119.6,96.1,119.6,96.2z M119.3,152.3L119.3,152.3c-0.3-0.4-0.3-0.3-1-0.3C118.2,152.4,119.9,153,119.3,152.3z
	 M116.7,151.3L116.7,151.3c-0.6-0.7-0.9,0.3-0.2,0.3C117.2,151.5,117.2,151.6,116.7,151.3z M117.8,151.3 M117.6,150.7L117.6,150.7
	c-0.3,0.1-0.7-0.2-0.3,0.2C118,151.7,118.3,150.4,117.6,150.7z M112.7,149L112.7,149c-0.2,0-0.3-0.1-0.5-0.2
	C112.3,149.6,113.6,149.1,112.7,149z M107.5,146.7L107.5,146.7c0.2-0.1,0-0.3,0-0.5c0-0.1-1.6,0.9-2.4,0.5c0-0.7-0.7,0.3-1.3-0.1
	c0,0-0.8,0.1-0.5,0.2C104.6,147.5,106.3,147.5,107.5,146.7z M90.4,112.3L90.4,112.3c-0.5-0.2-0.3,0.8,0.2,0.8
	C90.8,112.4,91.2,112.4,90.4,112.3z M98.5,108.7L98.5,108.7c0.9-0.4-1.7-1.9-1.9-0.8c-1,0-0.5,0.4-0.2,1.3c0.1,0.5,0.9-0.5,1.1-0.4
	c0.6,0.1,0.3,0.6,0.5,0.6C98.6,109.3,98.2,108.9,98.5,108.7z M108.2,146.4L108.2,146.4c0,0.1,0.4,0.6,0.6,0.6c0.3-0.6-0.7-1-0.9-1.4
	C106.5,145.3,108.2,146.2,108.2,146.4z M96.5,106.2L96.5,106.2c-1.3,0.5-0.1,1.2,0,1.2c0.2,0,3,0,3,0.2c-0.1,0.6,0,0.5-0.7,0.5
	c0,1.5,0.3,1.3,2.1,1c0.1-2.2,0.3,0.3,1.9-1c0.9,1,1.9-1,2.2-0.6c0.7,0-1.1,1-1,1c1.7,0.5,2.9-1.4,3.1-2.8c-0.5-0.5,0.5-0.3,0.8-0.7
	c0.7-0.7,0.8-2,0.8-3.2c0.4,0,0.3-0.1,0.3-0.6c-1-0.3-0.1,1-1.1,0.8c-0.4-0.9-1.4,0.1-1.4,0.7c0,0.9-1.8,2-1.9,1.7
	c0.8-0.9-0.6-0.7-0.6,0.2c0.6-0.1-1,1.5-1.4,0.9c0.7-0.5,0.3-1.1-0.1-0.8c0,0-2.2,2.7-2.2,1.6C100.4,105.5,97,106,96.5,106.2z
	 M86.1,143.5L86.1,143.5c0,0.2-0.4,0.8,0.1,0.8C86.8,144.3,86.5,143.7,86.1,143.5z M110.8,148.3L110.8,148.3
	c-0.1-0.1-0.3-0.8-0.6-0.8c-0.9,0,0.4,1.2,0.7,1C111.1,148.6,110.8,148.3,110.8,148.3z M121.3,95.6L121.3,95.6
	c-1.1-0.5-0.8,0.6-0.3,0.5C121.2,95.7,121.8,95.9,121.3,95.6z M88.4,150 M113.9,150.2L113.9,150.2c-0.1-0.2-0.1-0.2-0.3,0
	C113.6,150.7,114.5,150.2,113.9,150.2z M88.5,150.3L88.5,150.3c0.3,0.2,0.6-0.1,0.7-0.3C88.8,149.8,88.4,149.9,88.5,150.3z
	 M88.3,150.1 M150.6,86.3 M137.7,128.3 M144.9,73.9 M125.5,92.4L125.5,92.4c-0.3-0.2-0.4,0.1-0.7,0.3
	C125.4,93.1,126,92.5,125.5,92.4z M122.1,94.6 M91.4,104.5 M123.2,93.8 M73.7,114.9 M123.4,93.2 M134.1,135.4 M132,83.5L132,83.5
	c-1.5,0.3,0.1,1.8,0.4-0.3C132.1,83.2,132,83.2,132,83.5z M105.9,57.3L105.9,57.3c0.7-0.6-1.3-0.5-0.2,0.3
	C105.6,57.5,105.9,57.3,105.9,57.3z M109.8,56.5L109.8,56.5c2.3-0.1-1.8-0.5-2.3-0.5c-0.1-0.3-1.3,0.7-0.6,0.8
	c0.3,0.1,0.1,0.3,0.6-0.3C109.4,56.4,108.9,56.5,109.8,56.5z M88.1,114.6L88.1,114.6c1.2-0.4,0.4-0.8-0.2-0.6
	C87.8,114.1,87.8,114.6,88.1,114.6z M112.3,56.3L112.3,56.3c0-0.2-1.1-0.3-1.1,0.2c0.3-0.1,0.6,0,0.6,0.3c-0.2,0.2,0.9,0.2,1,0.3
	c0.2,0.1,0.2,0.6,0.5,0.6C116.9,57.7,113.3,57,112.3,56.3z M54.4,119.2 M55.2,120.3L55.2,120.3c-0.2,0.3-0.4,1,0.3,1
	C55.5,120.5,55.5,121,55.2,120.3z M56.3,107.8L56.3,107.8c-0.7,0.2,0.3,1,0.3-0.3C56.1,107.4,56.6,107.7,56.3,107.8z M59.8,130.3
	L59.8,130.3c0.2,0.1,0-0.9,0-1.2c0-0.5-0.4-0.6-0.4-1.1c0-0.9,1.2,1.9,1.2,0.8c-0.1-0.3-0.9-2.5-1.2-1.3c-0.6-0.1-0.3-1.4-1-1.9
	c0.9-1.1-1.6-4.2-1.6-5.7c0-0.3-0.5-0.5-0.5-0.6c0-1-1.3-5.4-1.3-1.2c0,0.7,0.8,2.1,0.8,3.8c0,0.3,1.3,2,0.6,2
	c-0.1,0,0.6,1.8,0.8,2.3C57.4,127.4,58.4,129.6,59.8,130.3z M67.2,136.8L67.2,136.8c-0.2-0.1-4.3-4-4.3-2.8c0,1.2,2.7,1.6,3.1,2.9
	C66.1,137.1,68.5,137.5,67.2,136.8z M67.7,133.6L67.7,133.6v-0.3c0-1.1,0.8-0.2,0.8-0.9c0-1.3,1-0.5,1.7-0.5
	c0.1-0.6-0.4-0.7-0.8-1.1c0,0-0.4-0.3-0.2-0.3c1.5,0-0.5-0.6,0.5-1.5c-0.5-0.2,0.9,0.1,1,0.1c-0.5-0.6-0.3-0.9,0.4-0.4
	c0.3,0.2,0.4,0.1,0.7,0.1c-1.4-0.6-1.3-2.6-3-2c-0.1-0.1-1.2,0.2-1.4,0.2c-0.4,0-0.5-0.5-1.4-0.5c-0.4,1-0.9,0.3-1.8,0.2
	c-0.5-0.1-0.6,0.5-0.9,0.5c-0.2-0.4-0.2-0.7-0.8-0.9c-1.3,0.8,0.3,4.4,1.3,5.3c0.5,0.2,0.5,0.6,0.6,0.6
	C65.2,132.2,67.7,134.5,67.7,133.6z M59.7,131.2 M61.1,129.6L61.1,129.6c0.1,0.5,0.6,0.3,0.6-0.1C60.8,128.8,61,129.3,61.1,129.6z
	 M62.6,133L62.6,133c-0.4-0.6-2.2-2.7-3-2.3C59.8,131.4,63,134.3,62.6,133z M69.6,112.8L69.6,112.8c0,0-0.3-1.2-0.9-1.2
	C67,111.6,67.3,115.5,69.6,112.8z M118.1,60.6L118.1,60.6c0.6,1,1.6,0.1,0.8-0.1c-0.1,0-0.4-0.9-0.3-0.5
	C118.2,60.3,118.6,60.4,118.1,60.6z M123.1,66.4L123.1,66.4c0.5,0.4,3.2,1.3,1.9-0.3c-0.8-0.1-0.9,0-1-0.7
	C123.3,65.2,122.7,65.7,123.1,66.4z M122.8,67.8L122.8,67.8c0.1,0.2,1.7,0.9,1.7,0.3C124.4,67.6,122.3,67,122.8,67.8z M135.8,70.5
	L135.8,70.5c0.2,0,0.8-0.1,0.8-0.1c0.2-0.8-2.3-0.4-1.4,0.3C135.8,71.2,135.6,70.6,135.8,70.5z M123.1,65.8 M126.3,67.5L126.3,67.5
	c0.4,0.4,1-0.5,0-0.5C126.1,67.3,126.1,67.2,126.3,67.5z M68.8,138.5L68.8,138.5c1.8,0,3.2,1.9,5.1,2c1,0-1.8-1.1-2.2-1.2
	c-0.3,0.4-1.5-1-2-1c-0.5,0-0.8-0.7-1.5-0.4C68.3,138,68.6,138.5,68.8,138.5z M73,124L73,124c-1,0.4-2.3,0.4-2.7,1.3
	c-0.2,0-0.3,0.4,0.4,0.2c0.7-0.3,3.2-0.6,2.5-1.6L73,124z M67.9,137.2L67.9,137.2c-0.7-0.3-0.5,0.4-0.2,0.7
	C68.1,137.5,68.3,137.6,67.9,137.2z M75.6,136.8L75.6,136.8c-0.5,0.6,1.6,0.9,0.3,0.1C75.9,136.8,75.8,136.8,75.6,136.8z
	 M77.2,137.5L77.2,137.5c-1.2-0.5-0.1,1.2,0.4,0.3C77.3,137.7,77.3,137.7,77.2,137.5z M71.5,134.3 M75.3,141.1L75.3,141.1
	c0-0.1-0.3-0.1-0.3-0.1C74.8,141.3,75.3,141.5,75.3,141.1z M85.6,139.9L85.6,139.9c-0.7-0.3-1.9-1.4-2.5-0.7
	c-0.8,0.9,2.7,1.5,0.6,1.5c-1.7,0,0.4,0.4,0.3,0.7c-0.3,1.1,0.3,0.5,0.8,0.6c0.8,0.2,0.7,0.8,1.7,1c0.9,0.2,5,2.8,2.4,2.8
	c-0.5,0-0.1,0.4,0.2,0.5c1.9,0.5,2.7,0.5,4.2,1.7c0,0,0.6,0.2,0.6,0.2c1.1,0.1,1.6,0.2,2.6-0.3c1.5-0.7,1.9,0.6,3.1,0.7
	c1,0.1,3.2,2.7,4.8,1.9c-1-0.4-1.8-1.9-2.6-2.2c-0.4-0.1-1.5-1-0.4-0.6c0.9-0.3-0.9-0.9-1.2-1.1c-1.3-0.8-9.3-5.8-10.9-4.9
	c-1.4,0.8-4.1,0.1-3.6-1.4C85.8,140.5,86.2,140.3,85.6,139.9z M71.6,140.7L71.6,140.7c0.8-0.1-0.6-0.9-0.8-1.1
	c-0.4-0.4-0.8,0.5-0.2,0.6C71.1,140.2,71.4,140.7,71.6,140.7z M87.2,143.5 M77.7,138.7L77.7,138.7c-0.6-0.6,0.3,1.4,1.4,1.1
	c0-0.9,2.2,1.1,2.8,0.8c-0.7-1-1.3-1.5-2.4-1.6C79.1,139,78.9,139.8,77.7,138.7z M79.5,135.6L79.5,135.6c0.5-1.1-1.3-0.3-0.8,0.3
	c1.1,1.4-0.5,1.6,1.4,0.8c-0.5-0.2-0.4-0.2,0-0.6C80.4,135.8,79.3,136.1,79.5,135.6z M79.1,138.4L79.1,138.4c0.7,0,0.1-0.3,0-0.5
	C79,138.2,78.7,138.4,79.1,138.4z M74.3,142.3L74.3,142.3c0.7,0.3,1.1,0.8,2.1,0.3c0.5-0.1,1.7,0.7,1.7-0.2c0-0.1-1.6-1.3-1-0.4
	C76.9,142.3,73.7,141.7,74.3,142.3z M81.7,143.9L81.7,143.9c0,0.2-0.3,0.2,0.4,0.2C82.5,143.6,81.7,143.8,81.7,143.9z M74.7,140.6
	 M75.5,134.4L75.5,134.4c-1-0.3-4.9-2.6-4.9-1.4c0,1.3-1.4,1-0.3,2.3c0.3,0.3,0.2,0.7,0,1c0,0.1,0.7,1,1,0.6
	c0.1-0.1,0.2-1.8,0.4-1.3c0.4,0.9-0.3,2,0.9,2c0.8,0,0.4,0.5,0.8,0.5c1.9,0-1.2-1-0.4-1.2c0.4-0.1,0.2-0.4,0.1-0.6
	c-1-1.3,1.9,0.3,1.7-0.5c-0.2-1.1-1.3-0.4-1.5-0.7c-0.8-1.1-1.4,0.5-1.9-0.9c-2.1-1.8,3.6,0.7,3.9,0.7c0.3,0,0.8-0.1,1.2-0.1
	c1.5,0-0.4-1.1-0.9-0.6C75.5,134.4,75.8,134.4,75.5,134.4z M92.9,111.4L92.9,111.4c0.3-0.2,0.8-1.7,0-1.2
	C92.7,110.7,92.2,111,92.9,111.4z M92.1,108L92.1,108c-1.2,0.9,0.5,0,0.9,0l0.5,0.8c0.2-0.3,0,0.6-0.2,0.6c-0.4-0.1-0.3,0.5,0.4,0.5
	c0.7,0,2.8-2.7,1.6-2.7c-0.2-1.1-2.2-0.6-2.2,0.3c0,0.6-0.9,0.2-0.9,0.4C92.1,108,92.4,107.7,92.1,108z M91.4,105.2 M143.4,67.8
	c4,4.2,7.4,9.1,9.8,14.5c-1,0.2-1,3.7-3.4,4.1c-0.4-0.6,3-2.8,1.8-3.7c-0.3-0.2,0.3-1.3,0.3-1.6c0-1.2-0.8-2.1-1.5-0.9
	c-0.6,1.1-1.2-1.2-1.5-1.5c-0.3-0.3-0.4,0.8-0.9,0.1c-1,1.8-2.9-0.4-1-0.4c0-0.4-0.8-0.6-0.5-0.9c-2.2-0.3,0.2-3.8-1.6-3.5
	c-0.9,0.1-0.1,0-0.4,0.6c-1.5,0.1-0.6-1.1-1.7-1.1c-1.7,0,2.2-1.5,0.9-1.5c-0.3,0-1.6-0.8-1.8-0.7c-1.5,0.4,0-1.1-0.4-2
	C141.2,68.3,142.1,68,143.4,67.8z M51.2,107c0-0.4,0-0.7,0-1.1c0.2-0.9,0.5-2.1,0.5-2.5c-0.1,0-0.2-0.1-0.5-0.3l0-0.2
	c0.8-28.8,24.4-51.9,53.4-51.9c2.5,0,5,0.2,7.5,0.5c0.6,0.3,0.9,0.8,0.1,0.8c-0.6,0-0.5,0.7-1.3,0.9c-0.5,0.1-1.6-0.2-1.9,0.2
	c-0.3,0.4-4.8,0.8-5.3,0.6c0.7-0.1,2.3-0.6,0.3-0.6c0-0.5-1.9,0.6-1.3,0.9c0.4,0.1,4.7,0.6,2.6,0.6c0,0.4,1.2,0.8,0.2,0.6
	c-0.9-0.1-0.8-0.5-1.6-0.4c-1.1,0.1-1.2,0.1-0.1,0.3c0.1,0,1.2,1.1,0.2,0.7c-0.8-0.3-0.5,0.3,0,0.6c-1.7,0.6,0.8,0.4,1.3,0.5
	c-0.3,0.2-1.3,0.8-1.3,0.9c0.2,1,1.3,0,2.1,0c0.3,0,3.5-0.8,3.3,0.2c-1.2,0.3-4.4,0.1-5,0.9c-0.6,0.8-2.7,0.1-3.6,0.1
	c0,1,3.5,0.4,3.3,0.6c0,0.5-1.9,0.5-0.9,1c0.8-0.3,1.1,0.3,1.1-0.8c0.2-0.1,0.6-0.1,0.8-0.3c0.5-1,5.4-1.3,3.4,0.6
	c0.3,0.6,0.6,0.1,0.9-0.2c1.2-0.7,2,0.1,3.4,0.1c0.5,0,1,1.1,1.9,0.9c1.6,0.7,2.4,0.1,4-0.1c0.7-0.1,1.2,0.6,0.2,0.6
	c-0.8,0-1.6,0.5-1.5,1.2c0.4,0,0.9-0.1,0.9,0.2c-0.1,1.1-1.3,0.6-1.9,0.8c-0.7,0.3,0.9,2.4,1.4,2.1c0.2-0.9,1-0.1,1.5,0.2
	c1.5,1.1-1.3,1.9-0.3,2.5c1.5-1,2.7,1.5,3.5-0.3c0.4-0.8,2.8,1.4,2.8,0.6c0.5-0.2,0.6,0.1,0.6,0.6c1,0.7,3.6,1,3.4,1.9
	c-1.1,0,3.3,1.7,3.6,0.5c2.4,0.9,4.7,0.8,7,2.3c0.9,0.5,1.7,0.3,2.2,0.9c0.4,0.5,0.4,1.7,0.7,1.7c0.4,1.7-2.5-0.7-2.6-0.7
	c-0.9,1.1-0.5-1-0.5-1.5c-1.2-1.1,0.7,0.9-0.7,0.9c-0.2,0,0.7,1,0,1.2c0,0.7-0.6,0.7-1.3,0.7c-0.3,1.1,1.7,0.3,1.4,2
	c-2.6-0.8-2.6,2.7-4.2,2.7c-0.6-1.5-6.3,1.6-3.5,2.5c-0.2,0.9-0.4,3.3-1.6,3.3c0,0-0.7,0.8-1.1,1.1l-0.1,0.3
	c-1.4,0.2-1.4,1.3-2.3,2.1c-0.5-0.1-0.2-1.4-0.1-1c0.4-1.1-0.1-2.7-0.1-3.9c0-0.7,1-1,1-1.6c0-2.3,5.4-3.3,5-5.9
	c-1,0-0.9,0.8-1.6,1.3c-0.4,0.3-1.7,0.6-1.2-0.4c0.4-0.7-2.2-1.2-2.2-0.5c0,0.5-1.8,0.7-1.8,2c1.6,1-1.2,0.8-1.6,0.3
	c-0.3-0.5-1.6,0.1-2.1,0.4c0,0.6-2.9-1.1-3-1.2c0,0-1.6,1-1.7,1.2c-0.7,0.5-2.7,0.8-2.7,1.2c0,0.7-2.4,0.6-2.8,1.2
	c-0.1,0.2,1.8,2.5,1.9,0.6c0,0,0.5,1.3,0.8,1.2c0.2,1.2-2.6,6.9-3.9,6.9c-1.2,0-1.5,1.9-3.1,1.9c-0.5,0-1.4,0.8-2.4,0.9
	c-0.4,0.1-2.3,1.5-2.5,0.6c-0.3-1.4-2,0-2.8,0c-0.9,0-0.6,1.4-1.9,1.4c-1.8,0-2.8,1.5-1.9,3.2c0,0.2-0.3,1.9-0.1,1.8
	c0.8,1.1-2.2,1.1-2.5,1.4c-0.2,0.3-1.2-0.2-1.6-0.3c-0.3-0.8,0.9-2.1,0.9-2.2c-0.1-0.4-0.3-0.6-0.2-1.1c1.2-0.4,1.2-0.7,0.6-1.3
	c0,0-0.2,0.1-0.3,0c-1,0,0.5-1.9,0.5-2.5c0-1.2-2-0.1-2.1-0.1c-1.8-0.2,2.6-2.6,0.7-2.6c-1.5,0-1.3,0.5-2.3,0.8
	c-0.9,0.3-2.8,0.4-1.8,1.6c-0.3,0.6-0.2,1,0.5,0.8c2.5-1.4,2.2,2.5,1.5,1.3c-0.3-0.6-4.6,0.6-3.1,1.3c0.1,0.9-0.3,5.2-1.8,5.4
	c-1.1,0.1,0.4,0.9,0,1.2c0,0.7-0.9,1.7-1.7,1.7c-0.9,0.1,0.3,2.4-0.3,2.4c-0.4,0.4-0.5,1,0,1.4c1.2,0.8-0.3,1.6-0.7,2.3
	c-0.1,0.1-2.4,1.4-2.6,1.3c-0.5-1.1-3.8,0-5.3-1.5c-0.2-0.4-3.2-3.5-3.5-3.5c-1.1,0-1.9-3.9-4.1-1.2c-1.3,3,2.2,9.5-4.8,8.7
	c-1.3-0.2-0.4-1.6-0.3-1.6c0-0.7-0.6-0.8-0.3-1.7c1.1-1-1.3-2.2-0.1-3.1c0-2.4-1.5,1-1.5,1.1c-2.1,0.8-0.2,5.1,0.1,6.2
	c0.2,0.5,0,0-0.2,0.1c-0.9,0.5,1.3,4-0.2,3.7c-0.1-0.2-0.4-1.1-0.7-1.2c-0.6-0.3-1.3-6.9-0.6-7.2c0-1.7,1.4-2.8,1.4-4.4
	c0-1.1,0.8-2.1,0.6-2.9c-3.7-0.8,2.1-6.2-0.1-6.9c-0.1-1,1.7-4.5-0.3-2.5c-0.6,0.2-0.1-1.1-0.5-1.3c-0.8,0.3-0.2,1.2-1.4,0.7
	c-0.6,1.5-3.3-0.4-3.3,1.7c0,0.8-0.5,1-0.5,1.8c0,0.3-1.6,1.7-1.3,1.8c0,0.8,0.5,1.7,0.5,0.7C52.6,103.8,53.1,107.2,51.2,107
	L51.2,107z M105.9,158c-0.4,0-0.9,0-1.3,0c-6.4,0-12.6-1.1-18.2-3.2c-6.1-2.5-11.7-5.9-16.5-10c1.3,0.7,4,2.3,4,0.8
	c0.6,0,1.2,0.9,1.8,0.1c1-1.8,3.8,1.7,4.6,1.7c1,0,0.1-0.8,0.9-0.8c1.3,0-0.1-0.6-0.1-0.8c0-0.7,1.4,0.4,1.2,0.4
	c-0.9,0.1,0.4,0.7,0.9,0.7c-0.4-1.4,1.4,0.6,2.2,0.7c0.6,0.1,1.5,0.8,2.2,0.8c3,0.3-1.8,1.9,0.5,2.3c1.4,0.2,2.3,1,3.3,1.7
	c1,0.6,3.1-0.4,3.1-1.2c0-0.8,1.6-1.9,1.6-1c0,0.7,2.6,1.7,2.6,2.5C98.8,154.9,104.6,155.8,105.9,158z M158,104.6
	c0,2.6-0.2,5.2-0.6,7.7c-2.4,0.6-4.5,0.6-5.1,3.5c-0.5,2.3-3.2,4.7-3.2,6.9c0,0.5-1,1.7-1.4,2.1c-0.8,0.9-2.6,3.2-2.6,4.5
	c0,0.5-2.1,2.8-2.3,2.9c-0.7,0.1-0.4,2.3-1.9,2.2c-0.3,0,0.3-0.7,0.5-0.6c0.7-0.8-0.9-0.2-1.1,0.4c-0.3,1.1-2.4,1.3-0.3,1.9
	c-0.2,1.4-2.6,0.8-2.6,2.3c0.3,0,1.1-0.7,0.9,0c-0.3,0.7-2.6,2.3-1.3,0.4c-0.7,0.1-0.7,0.9-1.4,0.9c-0.7,0,0,0.2,0,0.5
	c0,1.2-1.1-0.9-0.9,0.3c-0.3,0.1-0.7-0.1-0.7,0c-0.6,2.1-1.5-0.2-1.9-0.3c-0.6-0.1,0.2,1.3,0.1,1.2c-0.4-1-1.2,0.4-1.2-1.3
	c0-0.5-1.2-0.1-0.4-1.2c2.4,0.2,1.9-1.6,3.7-1.6c0.6,0-0.8-2.1,0.3-2.1c0.2,0,0.2-1.1,0.2-0.7c-0.5-1.8,2.2-0.3,1.9-1.8
	c-0.2-1.1,0.9-1.8,0-2.7c-0.3-0.3,1.4-2,1.1-0.3c0.9-0.2,1-1.3-0.1-1.3c-0.4-1.3,0.5-1.4-0.5-2.3c-0.9-0.9-3-5.4-0.5-5.4
	c1.7,0,0.4-0.5-0.3-0.6c-2.8-0.3-2.2-8-1.7-9.4c0.7-1.8-0.1-2.2-0.9-3.9c-0.8-0.4-2-1.3-2.4-2.1c-0.8,0-1.7-4-1.5-4.3
	c1.4-2.8,0.6-5.2-1-7.5c-0.3-0.4-0.8-1-0.8-2.2c0.3,0,0.4-0.5,0.5-0.5c0.2-1.6,4.6-1,4.6-2.1c0-0.4,2.3,0.5,3.2,0.5
	c0.9,0,1.8,0.9,2.2,0.4c1.1-1.2,6.9,1.4,6.5-2.4c1.1,0,1.8-0.5,2.7-0.6c1.2-0.1,2.8,1.5,3.7,1.2c1-0.4,2.9-0.8,2.9-1.9
	c0-0.1,0-0.1,0-0.2C156.8,91.2,158,97.7,158,104.6z M112.5,85.3c0.4,0.5,0.2,0.1,0.2-0.3C112.7,85.2,112.8,85.3,112.5,85.3z"/>
<path class="st3" d="M100.1,87.7c-0.2,0.3-0.4,1.1-0.2,2.5c0.1,0.9,0.4,1.3,0.8,1.5c0.2,0.1,0.3,0.1,0.5,0c0.2,0,0.3-0.1,0.4-0.2
	c0.2-0.2,0.4-0.5,0.3-1.1l0-0.1c-0.3-1.4-1-2.3-1.6-2.6C100.2,87.7,100.2,87.7,100.1,87.7 M72.8,103.9c0,0.2,0,0.3,0,0.6
	c0,0.4,0.1,0.5,0.2,0.6c0,0,0,0,0.1,0c0,0,0,0,0.1,0c0,0,0-0.1,0-0.2C73.1,104.4,73,104.1,72.8,103.9z M125.8,82.9
	c-0.4,0.4-0.8,0.8-1.2,1.3c0.5-0.1,1.1-0.2,1.6-0.3c2.5-0.4,4.8-0.4,7.4-0.2l0,0c0.7,0,1.3,0.4,1.7,1c1.7,2.5,3.2,7.2,4.1,12.2
	c0.1,0.6,0.2,1.2,0.3,1.8c1-4.8,1.5-9.6,1.4-12.1l0-0.1c-0.1-1.2,0.8-2.3,2.1-2.4c3.7-0.3,8.1,0.3,12.5,1.4c1,0.2,1.9,0.5,2.9,0.8
	c-0.5-0.3-1-0.6-1.4-0.9c-4.7-3-9.3-4.8-12-5.4c-0.3,0-0.5-0.1-0.8-0.3c-1.1-0.6-1.4-2-0.8-3.1c0.9-1.5,1.8-3.5,2.4-5.7
	c-0.3,0.2-0.5,0.4-0.8,0.7c-2.2,1.7-4.5,2.9-6.8,4c-0.8,0.4-1.8,0.3-2.5-0.3c-1.3-1.1-3.2-2.5-5.4-3.7c-0.4-0.2-0.7-0.4-1.1-0.6
	l0.2,0.4c1.2,1.9,2,3.5,2.6,4.8l0,0c0.4,1,0,2.3-1,2.8C129.3,80,127.5,81.3,125.8,82.9z M52,112.5c-1-0.7-2-1.4-3.1-1.9
	c0.2,0.4,0.5,0.8,0.7,1.3c0.3,0.6,0.4,1.4,0.1,2c-0.2,0.4-0.4,0.9-0.7,1.3c0.8-0.2,1.8,0,2.4,0.7c0.5,0.6,0.9,1.3,1.4,2
	c-0.1-0.5-0.2-0.9-0.2-1.2l0,0c0-0.2-0.1-0.3-0.1-0.5c0-1.1,0.8-2,1.8-2.2C53.5,113.5,52.7,113,52,112.5z M77.9,115.3
	c0.2,0,0.3,0.1,0.5,0.1 M80.7,109.2L80.7,109.2l-0.1,0l-0.1,0c-0.1,0-0.2,0.1-0.3,0.1l0,0l0,0l0,0l0,0l0,0c-0.1,0-0.2,0.1-0.4,0.1
	l0,0l0,0l0,0l-0.2,0c0,0-0.1,0-0.1,0l-0.1,0l0,0l0,0l-0.2,0l-0.1,0l-0.1,0l0,0l0,0l-0.1,0c-0.1,0-0.2,0-0.3,0.1l-0.2,0l0,0l0,0
	l-0.2,0c-0.1,0-0.2,0-0.3,0.1l0,0c-0.1,0-0.2,0-0.3,0.1l-0.3,0.1c0,0-0.1,0-0.1,0l-0.1,0c-0.1,0-0.2,0-0.3,0.1l-0.2,0l-0.1,0l-0.1,0
	c-0.1,0-0.3,0.1-0.4,0.1l-0.2,0l-0.4,0.1l-0.4,0.1l0,0l-0.2,0c-0.1,0-0.2,0-0.3,0.1l-0.2,0l0,0l-0.4,0.1c0,0-0.1,0-0.1,0l-0.2,0l0,0
	l-0.2,0c-0.1,0-0.1,0-0.2,0l-0.3,0.1c0,0-0.1,0-0.1,0l0,0l0,0l-0.2,0c0,0-0.1,0-0.1,0l-0.1,0c-0.1,0-0.2,0-0.2,0.1l-0.1,0
	c0,0-0.1,0-0.1,0l0,0l0,0l-0.3,0.1c-0.1,0-0.2,0.1-0.3,0.1l0,0l-0.2,0.1l-0.1,0l-0.2,0.1l0,0l-0.2,0.1l0,0c-0.1,0-0.2,0.1-0.2,0.1
	l0,0l0,0l-0.2,0.1l-0.1,0l-0.1,0l0,0l-0.2,0.1l0,0l-0.2,0.1l0,0l-0.2,0.1l0,0l-0.2,0.1l-0.1,0c0,0-0.1,0-0.1,0
	c1.3,0.2,2.5,0.6,3.7,1c0.7,0.3,1.2,0.8,1.4,1.5c0.4,1.1,0.6,2.3,0.8,3.6c0.2-0.5,0.4-1,0.6-1.4c0.4-1,1.4-1.5,2.4-1.4
	c1.9,0.3,4,0.8,5.9,1.6c-1.5-1.3-2.9-2.4-3.9-3.1c-1-0.7-1.3-2.1-0.6-3.1c0.1-0.1,0.2-0.3,0.3-0.4l0,0C80,110,80.4,109.6,80.7,109.2
	z M83.1,103.2L83.1,103.2 M96.1,125.9c1.1-2.8,1.7-6.4,2-9.8c0.3-3.8,0.2-7.4-0.4-9.7c-1.5-0.5-3-0.8-4.6-1
	c-1.5-0.2-3.2-0.2-5.1,0.1c-0.4,1.1-1,2.3-1.7,3.5c-0.6,0.9-1.2,1.8-1.8,2.7c1.9,1.5,4.2,3.5,6.2,5.8c2.1,2.3,4,5,5.2,7.7l0,0
	C96,125.3,96.1,125.6,96.1,125.9z M93,100.7l-0.2,0.1c0.3,0,0.6,0,0.9,0.1c2.3,0.2,4.4,0.8,6.6,1.5c0.6,0.2,1.2,0.7,1.4,1.4
	c1,2.8,1.3,7.6,0.9,12.6c0,0.4-0.1,0.8-0.1,1.2l0.2-0.4c2.1-4.2,3.4-8.6,3.4-11.2c0,0,0-0.1,0-0.1c0.1-1.2,1.2-2.1,2.4-2
	c2.1,0.2,5.3,1,8.5,2.4c-1.7-1.6-3.7-2.9-5.9-4.1l0,0c-0.2-0.1-0.4-0.2-0.5-0.4c-0.9-0.9-0.8-2.3,0-3.2c1-1,2.1-2.3,3.1-3.8
	l-0.2,0.1l0,0l0,0l-0.2,0.1l0,0l0,0L113,95l0,0l0,0l-0.3,0.1l0,0l0,0l-0.2,0.1c0,0-0.1,0-0.1,0l-0.3,0.1l0,0l0,0l-0.3,0.1l0,0l0,0
	l-0.1,0c0,0-0.1,0-0.1,0l-0.2,0.1l-0.1,0l-0.3,0.1l0,0l0,0l-0.2,0.1l-0.1,0l-0.1,0c0,0-0.1,0-0.1,0l-0.3,0.1l0,0l0,0l-0.1,0
	c0,0-0.1,0-0.1,0l-0.1,0c-0.1,0-0.1,0-0.2,0l-0.3,0.1l0,0l0,0l-0.1,0c-0.1,0-0.1,0-0.2,0l-0.3,0.1l0,0l0,0l-0.3,0.1l0,0l0,0l-0.1,0
	c-0.1,0-0.1,0-0.2,0l-0.3,0.1l0,0l0,0l-0.3,0.1l0,0l0,0l-0.1,0c-0.1,0-0.1,0-0.2,0l-0.5,0.1l0,0l0,0l-0.5,0.1l0,0l0,0l-0.3,0.1
	c-0.1,0-0.1,0-0.2,0l-0.5,0.1v0l0,0l-0.5,0.1l-0.5,0.1l-0.5,0.1l-0.4,0.1l-0.1,0l-0.5,0.1l0,0l-0.4,0.1l-0.1,0l-0.4,0.1
	c0,0-0.1,0-0.1,0l-0.5,0.1l0,0l-0.3,0.1c0,0-0.1,0-0.1,0l-0.5,0.1l0,0l-0.1,0c0,0-0.1,0-0.1,0l-0.1,0c0,0-0.1,0-0.1,0L99.7,98l0,0
	l-0.2,0l-0.1,0l-0.3,0.1l0,0l-0.1,0c0,0-0.1,0-0.1,0l-0.3,0.1l0,0l-0.2,0.1l0,0l-0.1,0c0,0-0.1,0-0.1,0L98,98.5l0,0l-0.2,0.1v0
	l-0.1,0c0,0-0.1,0-0.1,0l-0.2,0.1l0,0L97,98.8l0,0l-0.3,0.1l0,0L96.5,99l0,0L96.4,99l0,0l-0.2,0.1l-0.1,0l-0.3,0.1l0,0l-0.1,0.1
	l-0.1,0l-0.2,0.1l-0.1,0l-0.3,0.1l0,0l-0.3,0.1c0,0-0.1,0.1-0.1,0.1l-0.3,0.1l0,0l-0.1,0.1c0,0-0.1,0-0.1,0.1l-0.4,0.2l0,0l-0.1,0.1
	c0,0-0.1,0-0.1,0.1l-0.3,0.2l0,0L93,100.7L93,100.7z M87.1,99.5c0.1,0,0.1-0.1,0.2-0.1 M84.7,101.8c0.1-0.1,0.2-0.3,0.4-0.4
	c0.1-0.1,0.1-0.2,0.2-0.2c0.1-0.1,0.2-0.2,0.3-0.3c0.1-0.1,0.2-0.2,0.3-0.3l0.1-0.1l0,0l0,0l0.2-0.2c0.1-0.1,0.2-0.2,0.3-0.3
	l0.1-0.1l0,0l0,0l0.3-0.3c0,0,0.1-0.1,0.1-0.1l0.2-0.1l0,0l0,0l0.1-0.1c0.1-0.1,0.2-0.1,0.2-0.2l0.2-0.1c0,0,0.1-0.1,0.1-0.1
	l0.1-0.1l0,0l0,0l0.3-0.2l0,0l0,0l0.3-0.2c0,0,0.1-0.1,0.1-0.1l0.2-0.1l0,0l0,0l0.1-0.1c0.1-0.1,0.2-0.2,0.4-0.3l0.1-0.1l0,0l0,0
	l0.3-0.2l0.1,0l0.2-0.2c0,0,0.1-0.1,0.2-0.1l0.1-0.1l0,0l0,0l0.3-0.2l0,0l0,0l0.3-0.2l0,0l0,0l0.3-0.2c0.1,0,0.1-0.1,0.2-0.1
	c0.1-0.1,0.2-0.1,0.3-0.2c0.2-0.1,0.4-0.2,0.4-0.2c0,0,0.1,0,0.1-0.1l0.1-0.1l0,0l0,0l0.3-0.1c0.1,0,0.1-0.1,0.2-0.1
	c0.2-0.1,0.3-0.1,0.4-0.2l0,0l0,0l0.3-0.1c0,0,0.1,0,0.1-0.1l0.2-0.1c0,0,0.1,0,0.1,0l0.2-0.1l0,0l0,0l0.1-0.1
	c0.1,0,0.2-0.1,0.3-0.1l0.1-0.1l0.1,0l0,0c0.1,0,0.2-0.1,0.3-0.1l0.1-0.1l0,0l0,0l0.3-0.1l0.1,0l0.2-0.1l0,0l0.3-0.1
	c0.1,0,0.1,0,0.2,0l0.1,0l0,0v0l0.3-0.1l0,0l0,0l0.1,0c-0.7-0.9-1.2-2-1.3-3.5c-0.3-3,0.4-5,1.6-6.2c0.7-0.7,1.6-1.1,2.6-1.2
	c0.9-0.1,1.8,0.1,2.6,0.5c1.8,0.9,3.4,2.9,4.1,5.7c0,0,0,0.1,0,0.1c0.2,1,0.2,1.9,0,2.7l0.4-0.1c0,0,0.1,0,0.1,0l0.1,0l0,0l0.2-0.1
	v0l0.3-0.1c0.1,0,0.1,0,0.2,0l0.1,0l0,0l0.2-0.1l0,0l0.3-0.1c0,0,0.1,0,0.1,0l0.1,0l0,0l0.3-0.1c0,0,0.1,0,0.1,0l0.1,0l0.1,0l0.1,0
	l0,0l0.3-0.1c0,0,0.1,0,0.1,0l0.1,0l0,0l0.2-0.1l0,0l0.3-0.1l0,0l0.2-0.1l0.1,0l0.1,0v0l0.2-0.1v0l0.3-0.1l0.1,0l0.1-0.1l0,0
	l0.2-0.1l0,0l0.2-0.1l0,0l0.2-0.1l0,0l0.2-0.1c0,0,0.1,0,0.1,0l0.1,0l0,0l0.2-0.1c0,0,0.1,0,0.1,0l0.1,0l0,0l0.2-0.1l0.2-0.1l0.1,0
	l0.1-0.1l0,0l0.2-0.1l0.1,0l0.2-0.1l0.1,0l0.1-0.1l0,0l0.2-0.2l0,0l0.2-0.1l0,0l0.2-0.1l0,0l0.2-0.1l0.2-0.2v0l0.2-0.2l0,0l0.2-0.2
	c0,0,0.1,0,0.1-0.1l0.1-0.1l0,0c0.1,0,0.2-0.2,0.4-0.4c0,0,0.1-0.1,0.1-0.1l0.1-0.1l0,0l0.2-0.2l0,0l0.2-0.2l0,0l0.2-0.2l0,0
	l0.2-0.2c1.6-3.1,3.5-5.4,5.4-7.3c1.5-1.4,3-2.6,4.5-3.6c-0.4-0.7-0.8-1.5-1.4-2.4c-1.1-1.7-2.5-3.7-4.4-5.8
	c-0.8-0.9-0.7-2.4,0.2-3.2c0.5-0.5,1.2-0.6,1.9-0.5l0,0c3.4,0.7,6.5,1.9,9.1,3.3c2,1.1,3.7,2.2,5,3.3c1.7-0.8,3.3-1.8,4.8-2.9
	c1.8-1.4,3.6-3.3,5.1-5.8c0.6-1.1,2-1.4,3.1-0.8c0.7,0.4,1,1.1,1.1,1.8l0,0c0.2,2.2-0.3,5-1,7.8c-0.5,1.8-1.2,3.7-1.9,5.3
	c3,1,6.8,2.8,10.7,5.2c4,2.5,8.1,5.8,11.5,9.7c0.8,0.9,0.7,2.4-0.2,3.2c-0.7,0.6-1.7,0.7-2.5,0.3c-3.6-1.7-8.6-3.6-13.7-4.8
	c-3.1-0.8-6.2-1.3-9-1.3c-0.1,3.2-0.7,7.6-1.6,11.9c-1,4.4-2.3,8.6-4,11.3c-0.7,1-2.1,1.4-3.1,0.7c-0.8-0.5-1.1-1.3-1-2.2h0
	c0.4-3.2,0-8-0.8-12.6c-0.7-3.8-1.7-7.4-2.9-9.6c-1.8-0.1-3.5,0-5.3,0.2c-1.8,0.3-3.7,0.8-5.9,1.7c-0.5,1.7-1.4,3.6-2.5,5.5
	c-0.8,1.4-1.8,2.8-2.8,4.1c1.9,1.2,3.6,2.5,5.2,4.1c2.3,2.3,4.3,5.3,6.1,9.3c0.5,1.1,0,2.5-1.2,3c-0.9,0.4-2,0.1-2.6-0.6
	c-1.6-1.7-4-3.2-6.4-4.4c-2.3-1.1-4.5-1.9-6.4-2.3c-0.5,3-1.8,6.8-3.6,10.5c-2,4-4.6,7.9-7.6,10.5c-0.9,0.8-2.4,0.7-3.2-0.3
	c-0.5-0.5-0.6-1.2-0.5-1.9c0,0-0.1,0.1-0.1,0.1c-0.9,0.8-2.4,0.7-3.2-0.2c-1.4-1.6-3.9-3.4-6.8-5c-2.1-1.1-4.3-2-6.4-2.4
	c-0.6,1.3-1.3,2.8-2,4.2c-0.8,1.5-1.6,3-2.4,4.1c-0.5,0.8-1.4,1.2-2.4,1c-1.2-0.3-2-1.4-1.7-2.7c0.3-1.5,0.4-3.5,0.3-5.6
	c-0.1-1.5-0.3-3-0.6-4.3c-1-0.3-1.9-0.5-2.9-0.6c-1.2-0.1-2.6-0.1-4.2,0.1c-1,0.6-2.3,1.1-3.6,1.5c-0.7,0.2-1.4,0.3-2.1,0.5
	c0.3,1.8,0.4,4,0.4,6.3c-0.1,2.5-0.4,5.1-1.3,7.4c-0.4,1.2-1.7,1.7-2.9,1.3c-1-0.4-1.5-1.3-1.4-2.3c0-1.6-0.4-3.9-1.2-6.2
	c-0.5-1.5-1.2-3.1-2.1-4.4c-1,0.4-2,0.8-3.1,1.2c-1.3,0.5-2.7,0.9-3.8,1.1c-1.2,0.2-2.4-0.6-2.6-1.8c-0.2-0.9,0.2-1.8,0.9-2.3l0,0
	c1-0.7,2.1-1.7,3.1-2.9c0.7-0.8,1.3-1.7,1.8-2.5c-0.3-0.6-0.7-1.1-1.1-1.7c-0.6-0.8-1.5-1.5-2.6-2.4c-1-0.7-1.2-2.1-0.5-3.1
	c0.4-0.6,1-0.9,1.7-0.9v0c3.2-0.2,5.5,0.4,7.5,1.3c0.2-0.4,0.4-0.8,0.7-1.2c1.3-1.6,2.7-2.3,3.9-2.3c0.8,0,1.5,0.3,2.1,0.7
	c0.5,0.4,0.9,1,1.2,1.7c0.5,1.3,0.3,3.1-0.7,4.8l0,0l0,0c-0.1,0.2-0.2,0.4-0.4,0.5c1.3,0.7,2.7,1.3,4.3,1.4l0.1-0.1l0.1-0.1l0.2-0.2
	l0,0l0,0l0.1-0.1l0.1-0.1l0.1,0c0-0.1,0.1-0.1,0.2-0.2l0.2-0.2l0,0l0,0l0.2-0.2l0,0l0,0l0.1-0.1c0,0,0.1-0.1,0.1-0.1l0.1-0.1
	c0,0,0.1-0.1,0.1-0.1l0.1-0.1l0.1-0.1c0.1-0.1,0.2-0.2,0.4-0.3l0,0l0,0l0.1-0.1c0,0,0.1-0.1,0.1-0.1l0.2-0.1v0l0,0l0.2-0.1l0,0l0,0
	l0.1,0c0,0,0.1-0.1,0.1-0.1l0.2-0.1l0.1,0l0.1-0.1l0.1-0.1l0.2-0.1l0,0l0,0l0.2-0.1l0,0l0,0l0.1-0.1c0,0,0.1,0,0.1-0.1l0.2-0.1l0,0
	l0,0l0.2-0.1l0,0l0,0l0,0c0.1,0,0.1-0.1,0.2-0.1l0.2-0.1l0,0l0,0l0.1,0c0.1,0,0.1-0.1,0.2-0.1l0.2-0.1l0,0l0,0l0.2-0.1l0,0l0,0
	c0.1,0,0.1-0.1,0.2-0.1l0.2-0.1l0,0l0,0l0.2-0.1l0,0l0,0l0.2-0.1l0,0l0,0l0.2-0.1l0,0l0,0l0.1,0c0,0,0.1,0,0.1,0l0.2-0.1l0,0l0,0
	l0.2-0.1l0.1,0l0.1,0l0.1,0c-0.3-0.6-0.5-1.3-0.6-2.2c-0.2-2.4,0.4-4.1,1.4-5l0,0l0,0l0,0c0.7-0.6,1.4-0.9,2.3-1
	c0.7-0.1,1.5,0.1,2.2,0.5c1.4,0.7,2.8,2.4,3.2,4.6c0.1,0.5,0.1,1,0.1,1.4l0,0c0,0,0.1,0,0.1,0l0.2,0l0,0l0.1,0l0.1,0l0.2,0l0,0l0,0
	c0,0,0.1,0,0.1,0l0.2,0l0,0l0.1,0l0.1,0l0.2,0v0l0.2,0l0,0c0,0,0.1,0,0.1,0l0.2-0.1l0,0l0.2-0.1l0,0l0.1,0l0.2-0.1l0,0l0.1,0l0,0
	l0.1,0l0,0l0,0c0,0,0.1,0,0.1-0.1c0.1,0,0.2-0.1,0.3-0.1v0l0.1,0l0.1,0l0.2-0.1l0,0l0.1,0l0.1,0l0.2-0.1l0,0c0,0,0.1,0,0.1-0.1
	l0.2-0.1l0,0l0.2-0.1l0,0l0,0c0,0,0.1,0,0.1-0.1l0.2-0.1l0,0l0.1,0l0.1,0l0.2-0.1l0,0l0.1,0l0.1,0l0.2-0.1l0.2-0.1l0.1-0.1l0.1-0.1
	l0,0l0.1-0.1l0,0l0.2-0.1l0,0l0.1-0.1l0.1,0l0.1-0.1l0.1-0.1l0.2-0.1l0,0l0.1,0l0.1-0.1l0.2-0.2l0,0l0,0c0,0,0.1-0.1,0.1-0.1
	l0.2-0.2l0,0l0,0C84.7,101.9,84.7,101.8,84.7,101.8z"/>
<path class="st0" d="M97.7,90.4c-0.7-7.1,5.2-6,6.4-0.5C105.1,94.5,98.2,95.9,97.7,90.4 M70.6,104.7c-0.5-5.2,3.9-4.3,4.7-0.3
	C76,107.7,71,108.7,70.6,104.7z M52.5,106.3c2.6-3.2,4.6-0.4,2.9,2.4C54,110.9,50.6,108.8,52.5,106.3z M119,88.4
	c3.1-6,7-9.1,11-11.4c-1-2.4-3.1-6-7-10.6c6.4,1.3,11.4,4.7,14.2,7.1c4.5-2.1,8.8-4.6,12.1-10.2c0.3,4-1.7,10.6-3.9,14.3
	c5.2,1.1,16.3,6.3,23.8,15c-6.6-3.2-18.1-7-26-6.3c0.3,4.9-1.8,18.7-5.3,24.2c0.9-6.9-1.5-20.1-4.6-24.6
	C128.5,85.6,124.7,85.9,119,88.4z M42.6,107.1c9.6-0.6,11.2,7,19.6,7c-1.7,1.2-5.2,2.1-7.5,2.1c0.7,3.1,1.5,10.1-0.4,14.8
	c0.1-3.6-1.7-9.9-4.7-13.6c-2.2,1-5.7,2.4-8.1,2.8c2.2-1.5,4.9-4.7,6.2-7.3C46.4,110.6,45.2,109,42.6,107.1z M86.3,103.4
	c0.2-0.2,0.4-0.4,0.5-0.6l0,0c0.2-0.2,0.3-0.4,0.5-0.5c0.2-0.2,0.3-0.3,0.5-0.5v0c0.2-0.2,0.3-0.3,0.5-0.5l0,0
	c0.2-0.2,0.3-0.3,0.5-0.5v0c0.2-0.1,0.3-0.3,0.5-0.4c0.2-0.1,0.3-0.3,0.5-0.4l0,0c0.2-0.1,0.3-0.3,0.5-0.4l0,0
	c0.2-0.1,0.3-0.2,0.5-0.4c0.2-0.1,0.3-0.2,0.5-0.3c0.2-0.1,0.3-0.2,0.5-0.3c0.2-0.1,0.3-0.2,0.5-0.3l0,0c0.2-0.1,0.3-0.2,0.5-0.3
	c0.2-0.1,0.3-0.2,0.5-0.3c0.2-0.1,0.3-0.2,0.5-0.2c0.2-0.1,0.3-0.2,0.5-0.2c0.2-0.1,0.3-0.1,0.5-0.2v0c0.2-0.1,0.3-0.1,0.5-0.2
	c0.2-0.1,0.3-0.1,0.5-0.2c0.2-0.1,0.3-0.1,0.5-0.2c0.2-0.1,0.3-0.1,0.5-0.2v0c0.2-0.1,0.3-0.1,0.5-0.2v0c0.2,0,0.3-0.1,0.5-0.1l0,0
	c0.2,0,0.3-0.1,0.5-0.1c0.2,0,0.3-0.1,0.5-0.1l0,0c0.2,0,0.3-0.1,0.5-0.1v0c0.2,0,0.3-0.1,0.5-0.1c0.2,0,0.3-0.1,0.5-0.1l0.5-0.1
	l0.5-0.1l0.5-0.1l0.5-0.1l0.5-0.1l0.5-0.1l0.5-0.1l0.5-0.1l0.5-0.1l0.5-0.1l0.5-0.1c0.2,0,0.3-0.1,0.5-0.1c0.2,0,0.3-0.1,0.5-0.1
	c0.2,0,0.3-0.1,0.5-0.1c0.2,0,0.3-0.1,0.5-0.1c0.2,0,0.3-0.1,0.5-0.1c0.2,0,0.3-0.1,0.5-0.1c0.2,0,0.3-0.1,0.5-0.1
	c0.2-0.1,0.3-0.1,0.5-0.2c0.2-0.1,0.3-0.1,0.5-0.2c0.2-0.1,0.3-0.1,0.5-0.2c0.2-0.1,0.3-0.1,0.5-0.2c0.2-0.1,0.3-0.1,0.5-0.2
	c0.2-0.1,0.3-0.1,0.5-0.2s0.3-0.2,0.5-0.2c0.2-0.1,0.3-0.2,0.5-0.3c0.2-0.1,0.3-0.2,0.5-0.3s0.3-0.2,0.5-0.3
	c0.2-0.1,0.3-0.2,0.5-0.3c0.2-0.1,0.3-0.2,0.5-0.3c0.2-0.1,0.3-0.2,0.5-0.3c0.2-0.1,0.3-0.2,0.5-0.4c0.2-0.1,0.3-0.3,0.5-0.4
	c0.2-0.1,0.3-0.3,0.5-0.4c0.2-0.1,0.3-0.3,0.5-0.4c0.2-0.1,0.3-0.3,0.5-0.5c-0.7,3.6-4,9-6.8,11.7c5.3,2.9,9.3,6.2,12.7,13.8
	c-4.1-4.5-12.5-7.5-16.5-7.9c-0.2,5.3-4.7,16.8-10.7,21.9c3.1-6.8,3.6-18.6,1.9-23.4C95.4,103.1,91.9,102.5,86.3,103.4
	c-0.1,0.1-0.2,0.2-0.4,0.3v0c-0.1,0.1-0.2,0.2-0.4,0.3l0,0c-0.1,0.1-0.2,0.2-0.4,0.3v0c-0.1,0.1-0.2,0.2-0.4,0.3v0
	c-0.1,0.1-0.2,0.2-0.4,0.3l0,0c-0.1,0.1-0.2,0.2-0.4,0.2c-0.1,0.1-0.2,0.2-0.4,0.2v0c-0.1,0.1-0.2,0.1-0.4,0.2l0,0
	c-0.1,0.1-0.2,0.1-0.4,0.2c-0.1,0.1-0.2,0.1-0.4,0.2v0c-0.1,0.1-0.2,0.1-0.4,0.2l0,0c-0.1,0.1-0.2,0.1-0.4,0.2
	c-0.1,0.1-0.2,0.1-0.4,0.2l0,0c-0.1,0-0.2,0.1-0.4,0.1v0c-0.1,0-0.2,0.1-0.4,0.1c-0.1,0-0.2,0.1-0.4,0.1l0,0c-0.1,0-0.2,0.1-0.4,0.1
	l0,0c-0.1,0-0.2,0.1-0.4,0.1l0,0c-0.1,0-0.2,0.1-0.4,0.1c-0.1,0-0.2,0.1-0.4,0.1c-0.1,0-0.2,0.1-0.4,0.1c-0.1,0-0.2,0.1-0.4,0.1
	c-0.1,0-0.2,0.1-0.4,0.1c-0.1,0-0.2,0-0.4,0.1l0,0c-0.1,0-0.2,0-0.4,0.1l-0.4,0.1l0,0l-0.4,0.1l-0.4,0.1l-0.4,0.1l-0.4,0.1l-0.4,0.1
	l-0.4,0.1l-0.4,0.1v0l-0.4,0.1l-0.4,0.1l-0.4,0.1l-0.4,0.1l0,0c-0.1,0-0.3,0-0.4,0.1c-0.1,0-0.3,0.1-0.4,0.1l0,0
	c-0.1,0-0.3,0.1-0.4,0.1l0,0c-0.1,0-0.3,0.1-0.4,0.1l0,0c-0.1,0-0.3,0.1-0.4,0.1c-0.1,0-0.3,0.1-0.4,0.1c-0.1,0-0.3,0.1-0.4,0.1
	c-0.1,0-0.3,0.1-0.4,0.1c-0.1,0-0.3,0.1-0.4,0.1c-0.1,0-0.3,0.1-0.4,0.1c-0.1,0-0.3,0.1-0.4,0.2c-0.1,0.1-0.3,0.1-0.4,0.2l0,0
	c-0.1,0.1-0.3,0.1-0.4,0.2c-0.1,0.1-0.3,0.1-0.4,0.2c-0.1,0.1-0.3,0.1-0.4,0.2c-0.1,0.1-0.3,0.1-0.4,0.2c-0.1,0.1-0.3,0.2-0.4,0.2
	c-0.1,0.1-0.3,0.2-0.4,0.2c-0.1,0.1-0.3,0.2-0.4,0.3c-0.1,0.1-0.3,0.2-0.4,0.3c-0.1,0.1-0.3,0.2-0.4,0.3c-0.1,0.1-0.3,0.2-0.4,0.3
	c-0.1,0.1-0.3,0.2-0.4,0.3c-0.1,0.1-0.3,0.2-0.4,0.3c-0.1,0.1-0.3,0.2-0.4,0.4c-0.1,0.1-0.3,0.3-0.4,0.4c-0.1,0.1-0.3,0.3-0.4,0.4
	c4.1-0.6,6.6-0.1,9.7,1c1.2,3.5,1.4,8.8,0.7,12.1c1.8-2.5,3.8-6.9,5-9.7c6.1,0.8,13.3,5.1,16.3,8.5c-2.5-6-9.3-11.8-12.6-14
	C83.3,109.9,85.8,106,86.3,103.4z"/>
<path class="st3" d="M177.8,66.8l1.6-0.3l0.4-0.1l0,0.4c0,0.2,0,0.3,0,0.5c0,0.2,0,0.4,0,0.6c0,0.2,0.1,0.4,0.1,0.6
	c0.1,0.2,0.1,0.4,0.2,0.5c0.1,0.2,0.2,0.4,0.3,0.5c0.1,0.1,0.2,0.2,0.3,0.3c0.1,0.1,0.2,0.1,0.3,0.1c0.1,0,0.2,0,0.3-0.1l0,0
	c0.1-0.1,0.2-0.1,0.3-0.2c0.1-0.1,0.1-0.2,0.2-0.3c0-0.1,0.1-0.3,0.1-0.5c0-0.2,0-0.5,0-0.7v0c0-0.5,0-0.9,0-1.2
	c0-0.4,0.1-0.7,0.2-1v0c0.1-0.3,0.3-0.6,0.5-0.8v0c0.2-0.2,0.5-0.4,0.7-0.5v0c0.4-0.2,0.8-0.3,1.2-0.3c0.4,0,0.8,0.1,1.2,0.3
	c0.4,0.2,0.8,0.4,1.1,0.8c0.3,0.3,0.6,0.7,0.8,1.2l0,0c0.1,0.2,0.2,0.5,0.3,0.7c0.1,0.2,0.1,0.4,0.2,0.6c0,0.2,0.1,0.4,0.1,0.6
	c0,0.2,0,0.4,0,0.6l0,0.2l-0.2,0l-1.5,0.2l-0.4,0.1l0-0.4c0-0.1,0-0.2,0-0.4c0-0.1,0-0.3,0-0.5c0-0.3-0.1-0.6-0.3-0.9h0
	c-0.1-0.2-0.2-0.3-0.2-0.4c-0.1-0.1-0.2-0.2-0.3-0.2h0c-0.1,0-0.2-0.1-0.3-0.1h0c-0.1,0-0.2,0-0.3,0.1v0c-0.1,0-0.2,0.1-0.2,0.2
	c-0.1,0.1-0.1,0.1-0.1,0.2c0,0.1,0,0.3,0,0.5c0,0.2,0,0.5,0,0.8h0c0,0.4,0,0.8,0,1.2c0,0.4-0.1,0.7-0.2,1c-0.1,0.3-0.3,0.6-0.5,0.8
	l0,0c-0.2,0.2-0.5,0.4-0.8,0.6v0c-0.4,0.2-0.8,0.3-1.2,0.3c-0.4,0-0.8-0.1-1.2-0.3c-0.4-0.2-0.8-0.5-1.1-0.8
	c-0.3-0.4-0.6-0.8-0.9-1.4c-0.1-0.2-0.2-0.5-0.3-0.7c-0.1-0.2-0.1-0.5-0.2-0.7c0-0.2-0.1-0.5-0.1-0.7c0-0.2,0-0.5,0-0.7l0-0.2
	L177.8,66.8z M181.5,50l1.2,1.8l0.2,0.2l-0.2,0.2l-6,4c-0.5,0.3-0.9,0.7-1.2,1c-0.3,0.3-0.5,0.6-0.6,1c-0.1,0.3-0.1,0.6-0.1,0.9
	c0,0.3,0.2,0.6,0.4,0.9c0.2,0.3,0.5,0.6,0.7,0.7c0.3,0.2,0.6,0.3,0.9,0.3h0c0.3,0,0.7,0,1.1-0.2c0.4-0.1,0.9-0.4,1.4-0.7l6-4
	l0.2-0.2l0.2,0.2l1.2,1.8l0.2,0.2l-0.2,0.2l-5.9,4c-0.8,0.5-1.5,0.9-2.3,1.1c-0.7,0.2-1.4,0.3-2.1,0.1c-0.6-0.1-1.2-0.4-1.8-0.8
	c-0.5-0.4-1-0.9-1.5-1.6c-0.4-0.6-0.7-1.3-0.9-1.9h0c-0.1-0.6-0.2-1.2,0-1.8h0c0.2-0.7,0.5-1.3,1-1.9c0.5-0.6,1.1-1.2,1.9-1.7l5.9-4
	l0.2-0.2L181.5,50z M161.5,46.1l9.5-8.9l0.2-0.2l0.2,0.2l1.4,1.5l0.2,0.2l-0.2,0.2l-3.4,3.1l0.1,0h0c0.1,0,0.3,0,0.4,0.1l0,0
	c0.1,0,0.3,0.1,0.4,0.1c0.1,0,0.3,0.1,0.4,0.2c0.1,0.1,0.3,0.1,0.4,0.2c0.1,0.1,0.2,0.2,0.4,0.3c0.1,0.1,0.2,0.2,0.3,0.3
	c0.3,0.3,0.6,0.7,0.7,1.1l0,0c0.2,0.4,0.2,0.8,0.2,1.2v0c0,0.5-0.2,1-0.4,1.5c-0.3,0.5-0.7,1-1.2,1.5l-3.8,3.6l-0.2,0.2l-0.2-0.2
	l-1.4-1.5l-0.2-0.2l0.2-0.2l3.7-3.4c0.2-0.2,0.4-0.4,0.6-0.7l0,0c0.1-0.2,0.2-0.4,0.3-0.6l0,0c0.1-0.2,0.1-0.4,0-0.6
	c-0.1-0.2-0.2-0.4-0.4-0.6c-0.1-0.1-0.3-0.2-0.4-0.3c-0.1-0.1-0.3-0.1-0.5-0.2c-0.2,0-0.4,0-0.5,0c-0.2,0-0.3,0.1-0.5,0.1l0,0
	c-0.1,0-0.2,0.1-0.3,0.1h0c-0.1,0.1-0.2,0.1-0.3,0.2l-3.9,3.6l-0.2,0.2l-0.2-0.2l-1.4-1.5l-0.2-0.2L161.5,46.1z M163.5,33.4l2,0.9
	l0.3,0.2l-0.2,0.3l-1.3,1.5l1.5,1.2l0.2,0.2l-0.2,0.2l-1,1.2l-0.2,0.2l-0.2-0.2l-1.5-1.2l-2.5,2.9c-0.2,0.2-0.3,0.4-0.4,0.6
	c-0.1,0.2-0.1,0.3-0.1,0.4c0,0.1,0,0.2,0.1,0.3h0c0.1,0.1,0.1,0.2,0.3,0.3l0,0c0.1,0.1,0.2,0.2,0.4,0.3c0.1,0.1,0.2,0.1,0.3,0.2
	l0.3,0.1l-0.2,0.3l-1,1.3l-0.1,0.2l-0.2-0.1c-0.1,0-0.2-0.1-0.3-0.1c-0.1-0.1-0.2-0.1-0.4-0.2v0c-0.1-0.1-0.3-0.2-0.4-0.3
	c-0.1-0.1-0.3-0.2-0.4-0.3c-0.2-0.1-0.3-0.3-0.4-0.4c-0.1-0.2-0.2-0.3-0.3-0.5c-0.1-0.2-0.2-0.3-0.2-0.5h0c-0.1-0.2-0.1-0.4-0.1-0.5
	v0c0-0.4,0.1-0.8,0.3-1.2c0.2-0.4,0.5-0.8,0.9-1.3l2.6-3.1l-0.8-0.7l-0.2-0.2l0.2-0.2l1-1.2l0.2-0.2l0.2,0.2l0.8,0.7l0.9-1.1
	l0.1-0.2L163.5,33.4z M158.5,30.6c-0.2-0.1-0.3-0.3-0.5-0.4c-0.1-0.2-0.2-0.4-0.2-0.6l0,0c0-0.2,0-0.4,0-0.6h0
	c0-0.2,0.1-0.4,0.3-0.6c0.1-0.2,0.3-0.3,0.4-0.4c0.2-0.1,0.3-0.2,0.5-0.2c0.2,0,0.4,0,0.6,0c0.2,0,0.4,0.1,0.6,0.3
	c0.2,0.1,0.3,0.3,0.4,0.4c0.1,0.2,0.2,0.3,0.2,0.6l0,0c0,0.2,0,0.4,0,0.6h0c0,0.2-0.1,0.4-0.2,0.6c-0.1,0.2-0.3,0.3-0.4,0.4v0
	c-0.2,0.1-0.3,0.2-0.6,0.2h0c-0.2,0-0.4,0-0.6,0C158.8,30.8,158.7,30.7,158.5,30.6z M153.6,39.8l-1.7-1.2l-0.2-0.2l0.2-0.2l5-7.4
	l0.2-0.2l0.2,0.2l1.7,1.2l0.2,0.2l-0.2,0.2l-5,7.4l-0.2,0.2L153.6,39.8z M141.5,32.4l-2-1l-0.2-0.1l0.1-0.2l2.9-12.4l0.1-0.4
	l0.3,0.2l2,1l0.2,0.1l-0.1,0.2l-1.5,5.7l0,0l-0.8,2.8c0.1-0.2,0.3-0.3,0.4-0.5c0.5-0.6,1-1.2,1.5-1.8l3.8-4.5l0.1-0.2l0.2,0.1l2,1
	l0.2,0.1l-0.1,0.2l-1.5,5.8v0c-0.2,0.8-0.4,1.6-0.6,2.2v0l-0.1,0.3l0.4-0.5c0.4-0.6,0.9-1.1,1.4-1.7v0l3.8-4.5l0.1-0.2l0.2,0.1
	l1.9,1l0.3,0.2l-0.2,0.3l-8.6,9.5l-0.1,0.2l-0.2-0.1l-2-1l-0.2-0.1l0.1-0.2l1.5-5.9l0,0c0.1-0.3,0.2-0.7,0.3-1
	c0.1-0.4,0.2-0.7,0.3-1l0.1-0.3c-0.2,0.3-0.4,0.5-0.5,0.6l0,0c-0.3,0.3-0.5,0.5-0.6,0.7c-0.2,0.2-0.3,0.4-0.5,0.5l0,0l-4,4.6
	l-0.1,0.2L141.5,32.4z M131.4,30.5l-1.4-0.3l-0.4-0.1l0.3-0.4c0.2-0.3,0.4-0.6,0.7-0.9c0.2-0.3,0.5-0.7,0.7-1v0
	c0.2-0.4,0.5-0.7,0.7-1.1c0.2-0.3,0.4-0.7,0.6-1.1l0.1-0.2l0.2,0.1l2.2,0.5l0.4,0.1l-0.2,0.3c-0.3,0.4-0.5,0.8-0.8,1.1
	c-0.3,0.4-0.6,0.7-0.9,1.1l0,0c-0.3,0.4-0.6,0.7-0.9,1c-0.3,0.3-0.5,0.5-0.8,0.8l-0.1,0.1L131.4,30.5z M120.7,25.2l2.7-12.7l0.1-0.3
	l0.3,0.1l2.1,0.4l0.3,0.1L126,13l-1,4.5l0.1,0c0.1-0.1,0.2-0.1,0.4-0.2l0,0c0.1-0.1,0.3-0.1,0.4-0.1l0,0c0.1,0,0.3-0.1,0.4-0.1
	c0.1,0,0.3,0,0.4-0.1c0.1,0,0.3,0,0.4,0c0.1,0,0.3,0,0.5,0.1c0.5,0.1,0.9,0.3,1.2,0.5c0.3,0.2,0.6,0.5,0.9,0.9
	c0.3,0.4,0.5,0.9,0.5,1.5c0.1,0.6,0,1.2-0.1,1.9l-1.1,5.1l-0.1,0.3l-0.3-0.1l-2.1-0.4l-0.3-0.1l0.1-0.3l1-4.9
	c0.1-0.3,0.1-0.6,0.1-0.9c0-0.3,0-0.5-0.1-0.7l0,0c-0.1-0.2-0.2-0.4-0.4-0.5c-0.2-0.1-0.4-0.2-0.6-0.3c-0.2,0-0.4,0-0.5,0
	c-0.2,0-0.3,0.1-0.5,0.1c-0.2,0.1-0.3,0.2-0.4,0.3c-0.1,0.1-0.2,0.2-0.3,0.4c0,0.1-0.1,0.2-0.1,0.3c0,0.1-0.1,0.2-0.1,0.3l-1.1,5.2
	l-0.1,0.3L123,26l-2.1-0.4l-0.3-0.1L120.7,25.2z M115.7,13.6l2.1-0.3l0.4-0.1l-0.1,0.4l-0.3,2l1.9,0.3l0.3,0l0,0.3l-0.2,1.6l0,0.3
	l-0.3,0l-1.9-0.3l-0.5,3.8c0,0.3,0,0.5,0,0.7c0,0.2,0,0.3,0.1,0.4c0,0.1,0.1,0.2,0.2,0.2c0.1,0.1,0.2,0.1,0.4,0.1c0.2,0,0.3,0,0.4,0
	c0.1,0,0.3,0,0.4,0l0.4-0.1l0,0.4l-0.2,1.6l0,0.2l-0.2,0c-0.1,0-0.2,0-0.3,0.1c-0.1,0-0.3,0-0.4,0c-0.2,0-0.3,0-0.5,0
	c-0.2,0-0.3,0-0.5-0.1c-0.2,0-0.4-0.1-0.6-0.1c-0.2-0.1-0.4-0.1-0.5-0.2c-0.2-0.1-0.3-0.2-0.5-0.3c-0.1-0.1-0.3-0.3-0.4-0.4l0,0
	c-0.4-0.6-0.5-1.5-0.4-2.7l0.6-4l-1-0.1l-0.3,0l0-0.3l0.2-1.6l0-0.3l0.3,0l1,0.1l0.2-1.4l0-0.2L115.7,13.6z M106,23.9l0-6.1h0
	c0-0.2,0-0.5,0-0.7c0-0.2,0-0.5,0-0.8c0-0.3,0-0.6,0-0.8c0-0.2,0-0.4,0-0.5v-0.3h0.3h1.8h0.3l0,0.3l0,0.8c0.2-0.3,0.4-0.5,0.7-0.7
	c0.3-0.2,0.5-0.3,0.8-0.4c0.3-0.1,0.5-0.1,0.8-0.1h0.5h0.3v0.3v2v0.3l-0.3-0.1c-0.1,0-0.2,0-0.3,0c-0.1,0-0.2,0-0.3,0
	c-0.2,0-0.5,0-0.6,0.1c-0.2,0.1-0.4,0.2-0.5,0.3c-0.2,0.1-0.3,0.3-0.4,0.5c-0.1,0.2-0.2,0.4-0.2,0.7l0,0c0,0.1,0,0.2,0,0.3
	c0,0.1,0,0.2,0,0.4v4.7v0.3h-0.3h-2.1H106L106,23.9z M100.7,20.8l-0.1-1c-0.4,0-0.7,0.1-1,0.1h0c-0.3,0.1-0.6,0.2-0.8,0.3v0
	c-0.3,0.1-0.5,0.3-0.6,0.5c-0.1,0.2-0.2,0.4-0.2,0.7c0,0.2,0,0.3,0.1,0.5c0.1,0.1,0.1,0.2,0.2,0.3c0.1,0.1,0.2,0.1,0.3,0.2
	c0.1,0,0.3,0,0.4,0c0.4,0,0.7-0.2,1-0.4c0.1-0.1,0.2-0.2,0.3-0.4c0.1-0.1,0.1-0.3,0.2-0.4h0C100.7,21.1,100.7,20.9,100.7,20.8z
	 M103.2,18.3l0.2,3.2c0,0.3,0,0.6,0.1,0.8c0,0.2,0,0.4,0.1,0.5c0,0.1,0,0.2,0.1,0.4c0,0.1,0.1,0.3,0.1,0.4l0.1,0.3l-0.3,0l-1.9,0.1
	l-0.2,0l-0.1-0.2l-0.1-0.5c0,0-0.1,0.1-0.1,0.1c-0.2,0.2-0.4,0.3-0.6,0.5h0c-0.2,0.1-0.5,0.3-0.8,0.3h0c-0.3,0.1-0.6,0.1-0.9,0.2
	c-0.5,0-0.9,0-1.3-0.1c-0.4-0.1-0.7-0.3-1-0.6c-0.3-0.3-0.5-0.6-0.7-0.9c-0.2-0.3-0.3-0.7-0.3-1.1c0-0.6,0-1.1,0.3-1.6v0
	c0.2-0.5,0.6-0.9,1.1-1.2c0.5-0.3,1-0.6,1.7-0.8c0.6-0.2,1.3-0.3,2-0.4c0-0.1,0-0.3-0.1-0.4h0c-0.1-0.1-0.1-0.3-0.2-0.4l0,0
	c-0.1-0.1-0.3-0.3-0.5-0.3c-0.2-0.1-0.5-0.1-0.8-0.1c-0.2,0-0.4,0-0.6,0.1c-0.2,0-0.4,0.1-0.6,0.2c-0.2,0.1-0.4,0.1-0.5,0.2
	c-0.2,0.1-0.3,0.2-0.5,0.3l-0.3,0.2l-0.1-0.3L95.7,16l-0.1-0.2l0.2-0.1c0.2-0.1,0.4-0.3,0.6-0.4c0.2-0.1,0.5-0.2,0.8-0.3
	c0.3-0.1,0.6-0.2,0.9-0.2c0.3-0.1,0.6-0.1,1-0.1h0c0.7,0,1.3,0,1.8,0.2c0.5,0.2,1,0.5,1.3,0.8c0.3,0.3,0.5,0.7,0.7,1.2
	C103,17.2,103.1,17.8,103.2,18.3z M92.3,17.6l0.3,1.7l0,0.3l-0.3,0L88,20.3l0.5,3.2l4.9-0.8l0.3,0l0,0.3l0.3,1.7l0,0.3l-0.3,0
	l-7.3,1.1l-0.3,0l0-0.3l-1.9-12.2l0-0.3l0.3,0l7-1.1l0.3,0l0,0.3l0.3,1.7l0,0.3l-0.3,0l-4.6,0.7l0.4,2.7l4.4-0.7l0.3,0L92.3,17.6z
	 M73.5,24.3l3.2-1.3c-0.1-0.1-0.1-0.3-0.2-0.4c-0.1-0.2-0.3-0.3-0.4-0.4v0c-0.2-0.2-0.4-0.2-0.7-0.3c-0.2,0-0.5,0-0.8,0.1
	c-0.3,0.1-0.5,0.2-0.6,0.4c-0.2,0.2-0.3,0.4-0.4,0.7h0c-0.1,0.2-0.1,0.5-0.1,0.7C73.5,24,73.5,24.1,73.5,24.3z M79.6,24.1l-5.3,2.1
	c0.1,0.2,0.3,0.4,0.4,0.6c0.2,0.2,0.5,0.4,0.8,0.4l0,0c0.3,0.1,0.6,0.1,0.9,0.1c0.3,0,0.6-0.1,1-0.2h0c0.2-0.1,0.5-0.2,0.7-0.3
	c0.2-0.1,0.4-0.2,0.5-0.3l0,0c0.1-0.1,0.3-0.2,0.4-0.3c0.2-0.1,0.3-0.3,0.5-0.4l0.2-0.2l0.2,0.3l0.9,1.3l0.1,0.2l-0.2,0.2
	c-0.2,0.2-0.3,0.3-0.5,0.5c-0.2,0.2-0.4,0.3-0.6,0.5c-0.2,0.1-0.5,0.3-0.7,0.4h0c-0.3,0.1-0.5,0.3-0.8,0.4c-0.7,0.3-1.3,0.4-2,0.4
	c-0.6,0-1.2-0.1-1.8-0.3c-0.6-0.2-1.1-0.6-1.5-1.1c-0.4-0.5-0.8-1-1-1.7c-0.3-0.6-0.4-1.3-0.5-1.9c0-0.6,0-1.2,0.2-1.8
	c0.2-0.6,0.5-1.2,1-1.6c0.4-0.5,1-0.8,1.7-1.1c0.7-0.3,1.3-0.4,1.9-0.3c0.6,0,1.2,0.2,1.7,0.6c0.4,0.3,0.8,0.6,1.1,1
	c0.3,0.4,0.6,0.9,0.8,1.4c0,0.1,0.1,0.2,0.1,0.3c0,0.1,0.1,0.2,0.1,0.2c0,0.1,0.1,0.3,0.1,0.4l0.1,0.2L79.6,24.1z M63.8,35.4
	l-6.1-11.5l-0.1-0.2l0.3-0.1l1.9-1l0.3-0.1l0.1,0.3l2.2,4.1l0-0.1h0c0-0.1,0.1-0.3,0.2-0.4c0.1-0.1,0.1-0.3,0.2-0.4
	c0.1-0.1,0.2-0.2,0.3-0.3l0,0c0.1-0.1,0.2-0.2,0.3-0.3l0,0c0.1-0.1,0.2-0.2,0.3-0.3c0.1-0.1,0.3-0.2,0.4-0.2v0
	c0.4-0.2,0.8-0.3,1.2-0.4c0.4,0,0.8,0,1.2,0.1c0.5,0.2,1,0.4,1.4,0.8c0.4,0.4,0.8,0.9,1.1,1.5l2.5,4.6l0.1,0.3l-0.3,0.1l-1.9,1
	l-0.2,0.1L69,32.6l-2.4-4.4c-0.2-0.3-0.3-0.5-0.5-0.7v0c-0.2-0.2-0.3-0.3-0.5-0.4l0,0c-0.2-0.1-0.4-0.2-0.6-0.2
	c-0.2,0-0.4,0.1-0.7,0.2c-0.2,0.1-0.3,0.2-0.4,0.3c-0.1,0.1-0.2,0.3-0.3,0.4c-0.1,0.2-0.1,0.3-0.1,0.5c0,0.2,0,0.3,0,0.5
	c0,0.1,0,0.2,0.1,0.3c0,0.1,0.1,0.2,0.1,0.3h0l2.5,4.7l0.1,0.3l-0.3,0.1l-1.9,1L64,35.6L63.8,35.4z M52.3,30.2l1.4-1.6l0.2-0.3
	l0.2,0.3l1.1,1.6l1.6-1.1l0.2-0.2l0.2,0.2l0.9,1.3l0.2,0.2l-0.2,0.2L56.5,32l2.1,3.2c0.2,0.2,0.3,0.4,0.4,0.5
	c0.1,0.1,0.3,0.2,0.4,0.3c0.1,0,0.2,0.1,0.3,0c0.1,0,0.3-0.1,0.4-0.2c0.1-0.1,0.2-0.2,0.4-0.3l0,0c0.1-0.1,0.2-0.2,0.3-0.3L61,35
	l0.2,0.3l0.9,1.3l0.1,0.2l-0.1,0.2c-0.1,0.1-0.1,0.2-0.2,0.3c-0.1,0.1-0.2,0.2-0.3,0.3c-0.1,0.1-0.2,0.2-0.4,0.3
	c-0.1,0.1-0.3,0.2-0.4,0.3c-0.2,0.1-0.4,0.2-0.5,0.3v0c-0.2,0.1-0.4,0.1-0.6,0.2c-0.2,0-0.4,0.1-0.6,0.1c-0.2,0-0.4,0-0.5-0.1l0,0
	c-0.4-0.1-0.7-0.3-1.1-0.6c-0.3-0.3-0.7-0.7-1-1.2l-2.3-3.4L53.4,34l-0.2,0.2l-0.2-0.2l-0.9-1.3L52,32.4l0.2-0.2l0.8-0.6l-0.8-1.1
	l-0.1-0.2L52.3,30.2z M45.5,42.4l2.5-2.4c-0.1-0.1-0.2-0.2-0.4-0.3c-0.2-0.1-0.4-0.2-0.6-0.3v0c-0.3-0.1-0.5-0.1-0.7,0
	c-0.2,0.1-0.5,0.2-0.7,0.4c-0.2,0.2-0.4,0.4-0.4,0.6c-0.1,0.2-0.1,0.5-0.1,0.8h0c0,0.2,0.1,0.5,0.2,0.7v0
	C45.4,42.2,45.5,42.3,45.5,42.4z M51.1,40.1L46.9,44c0.2,0.2,0.4,0.3,0.6,0.4c0.3,0.1,0.6,0.2,0.9,0.1h0c0.3,0,0.6-0.1,0.8-0.2
	c0.3-0.1,0.6-0.3,0.8-0.6c0.2-0.2,0.4-0.3,0.5-0.5l0,0c0.1-0.2,0.3-0.3,0.4-0.4c0.1-0.1,0.2-0.3,0.3-0.4c0.1-0.2,0.2-0.3,0.3-0.5
	l0.1-0.3l0.3,0.2l1.3,0.9l0.2,0.1l-0.1,0.2c-0.1,0.2-0.2,0.4-0.3,0.6c-0.1,0.2-0.3,0.4-0.4,0.6c-0.2,0.2-0.3,0.4-0.5,0.7
	c-0.2,0.2-0.4,0.4-0.7,0.7c-0.5,0.5-1.1,0.9-1.7,1.1l0,0c-0.6,0.2-1.2,0.4-1.8,0.3c-0.6,0-1.2-0.2-1.8-0.5c-0.6-0.3-1.1-0.7-1.6-1.2
	c-0.5-0.5-0.8-1-1.1-1.6c-0.3-0.6-0.4-1.2-0.4-1.8c0-0.7,0.1-1.3,0.3-1.9c0.2-0.6,0.6-1.1,1.2-1.6c0.5-0.5,1.1-0.8,1.6-1
	c0.6-0.2,1.2-0.2,1.8-0.1c0.5,0.1,1,0.3,1.4,0.6c0.4,0.3,0.9,0.6,1.3,1.1c0.1,0.1,0.1,0.1,0.2,0.2c0.1,0.1,0.1,0.1,0.1,0.2
	c0,0,0.1,0.1,0.1,0.2c0,0.1,0.1,0.1,0.1,0.2l0.1,0.2L51.1,40.1z M34,50l1.5-1.7l0.1-0.2l0.2,0.1l4.5,1.9l0,0
	c0.4,0.1,0.7,0.3,1.1,0.5l0.1,0.1c-0.1-0.2-0.2-0.4-0.4-0.6c-0.1-0.2-0.3-0.4-0.3-0.5l0,0l-2.5-4.1l-0.1-0.2l0.1-0.2l1.5-1.7
	l0.3-0.3l0.2,0.4l4.5,8.4l0.1,0.2l-0.1,0.1l-1.4,1.6l-0.1,0.1L43,53.8l-8.9-3.3l-0.4-0.1L34,50z M36.1,57.8l-0.9-0.5
	c-0.2,0.3-0.3,0.6-0.5,0.9c-0.1,0.3-0.2,0.6-0.3,0.8c-0.1,0.3,0,0.6,0.1,0.8c0.1,0.2,0.3,0.4,0.5,0.5c0.2,0.1,0.3,0.2,0.4,0.2v0
	c0.1,0,0.3,0,0.4,0c0.1,0,0.2-0.1,0.3-0.2c0.1-0.1,0.2-0.2,0.3-0.3h0c0.1-0.2,0.2-0.3,0.2-0.5c0-0.2,0.1-0.3,0-0.5
	c0-0.2-0.1-0.3-0.1-0.5c-0.1-0.1-0.1-0.3-0.2-0.4c0,0-0.1-0.1-0.1-0.1C36.2,57.9,36.1,57.8,36.1,57.8L36.1,57.8z M35.5,54.4l2.7,1.7
	c0.3,0.2,0.5,0.3,0.7,0.4c0.2,0.1,0.3,0.2,0.4,0.2h0c0.1,0.1,0.2,0.1,0.3,0.2l0,0c0.1,0.1,0.3,0.1,0.4,0.2l0.3,0.1l-0.2,0.3l-1,1.6
	l-0.1,0.2l-0.2-0.1L38.5,59c0,0.1,0,0.1,0,0.2v0c0,0.3,0,0.5,0,0.8c0,0.3-0.1,0.6-0.2,0.8v0c-0.1,0.3-0.2,0.5-0.4,0.8
	c-0.2,0.4-0.5,0.7-0.9,1c-0.3,0.2-0.7,0.4-1.1,0.5c-0.4,0.1-0.8,0.1-1.1,0c-0.4-0.1-0.7-0.2-1.1-0.4c-0.5-0.3-0.9-0.7-1.1-1.2
	c-0.3-0.5-0.4-1-0.4-1.6c0-0.6,0.1-1.2,0.4-1.8c0.2-0.6,0.5-1.2,0.9-1.8c-0.1-0.1-0.2-0.1-0.4-0.1c-0.1,0-0.3-0.1-0.4,0h0
	c-0.2,0-0.4,0.1-0.6,0.2c-0.2,0.1-0.4,0.4-0.5,0.6c-0.1,0.2-0.2,0.3-0.3,0.5c-0.1,0.2-0.2,0.4-0.2,0.6c-0.1,0.2-0.1,0.4-0.1,0.6
	c0,0.2,0,0.4,0,0.5l0,0.4l-0.4-0.1l-1.4-0.4L29,59l0-0.2c0-0.2,0-0.5,0.1-0.7c0-0.3,0.1-0.5,0.2-0.8c0.1-0.3,0.2-0.6,0.3-0.9l0,0
	c0.1-0.3,0.3-0.6,0.5-0.8l0,0c0.4-0.6,0.8-1,1.2-1.4c0.5-0.3,0.9-0.5,1.5-0.6h0c0.4,0,0.9,0,1.4,0.1C34.6,53.8,35,54.1,35.5,54.4z
	 M30.3,72.7L29,71.4l-0.3-0.2l0.3-0.2c0.2-0.1,0.4-0.2,0.5-0.4c0.2-0.1,0.4-0.3,0.5-0.5c0.2-0.2,0.3-0.4,0.5-0.6v0
	c0.1-0.2,0.3-0.4,0.4-0.7c0.2-0.3,0.3-0.6,0.3-0.8v0c0.1-0.3,0.1-0.5,0-0.7c0-0.2-0.1-0.4-0.2-0.5c-0.1-0.2-0.3-0.3-0.5-0.4
	c-0.2-0.1-0.4-0.2-0.5-0.2c-0.2,0-0.4,0-0.5,0.1c-0.2,0.1-0.4,0.2-0.7,0.3c-0.3,0.2-0.5,0.4-0.9,0.7l0,0c-0.4,0.4-0.9,0.7-1.3,1
	c-0.4,0.3-0.8,0.5-1.2,0.6c-0.4,0.1-0.9,0.2-1.3,0.1c-0.4,0-0.9-0.2-1.3-0.4v0c-0.5-0.3-0.9-0.6-1.2-1c-0.3-0.4-0.5-0.9-0.6-1.4
	c-0.1-0.5-0.1-1.1,0-1.7c0.1-0.6,0.3-1.1,0.6-1.7c0.2-0.3,0.3-0.6,0.5-0.8c0.2-0.2,0.3-0.5,0.5-0.6c0.2-0.2,0.3-0.4,0.5-0.5
	c0.2-0.2,0.4-0.3,0.5-0.4l0.2-0.1l0.2,0.2l1.3,1.3l0.2,0.2l-0.3,0.2c-0.1,0.1-0.2,0.2-0.4,0.3c-0.1,0.1-0.2,0.2-0.4,0.3l0,0
	c-0.2,0.2-0.3,0.3-0.4,0.5c-0.1,0.2-0.3,0.4-0.4,0.6c-0.2,0.3-0.3,0.5-0.3,0.8c0,0.2,0,0.5,0,0.7v0c0,0.2,0.1,0.3,0.2,0.4
	c0.1,0.1,0.2,0.2,0.4,0.3c0.2,0.1,0.3,0.1,0.5,0.1c0.2,0,0.4,0,0.6-0.1l0,0c0.2-0.1,0.4-0.2,0.7-0.4c0.3-0.2,0.6-0.4,0.9-0.7
	c0.5-0.4,0.9-0.7,1.3-1h0c0.4-0.3,0.8-0.4,1.2-0.5c0.4-0.1,0.8-0.1,1.2-0.1c0.4,0.1,0.8,0.2,1.3,0.4c0.5,0.3,0.9,0.6,1.2,1
	c0.3,0.4,0.5,0.9,0.7,1.4h0c0.1,0.6,0.2,1.2,0,1.8c-0.1,0.6-0.4,1.3-0.7,2c-0.2,0.3-0.3,0.6-0.5,0.8c-0.2,0.3-0.4,0.5-0.6,0.8
	c-0.2,0.2-0.4,0.4-0.6,0.6c-0.2,0.2-0.4,0.3-0.6,0.4l-0.2,0.1L30.3,72.7z"/>
<path class="st1" d="M176.1,165.8c1.2,0.9,2.5,0.9,3.8,0.4c1.8-0.7,3.4-2.2,4.5-3.8c1.3-1.7,2.6-3.9,2.6-6.2c0-2-0.9-3.4-2.5-4.6
	c-0.6-0.5-1.3-0.9-2.1-1c-0.8-0.1-1.7,0-2.4,0.2c-1.3,0.4-3.4,1.9-4.5,2.7c-0.2,0.1-0.4,0.3-0.6,0.4l-0.1,0
	c-0.9,0.6-2.7,1.8-3.7,1.1c-0.5-0.4-0.7-0.8-0.6-1.4c0-0.6,0.4-1.2,0.7-1.7c0.3-0.4,0.7-0.7,1.1-1c0.4-0.3,0.9-0.5,1.4-0.6
	c0.2-0.1,0.5-0.1,0.7-0.2c0.8-0.2,1.7-0.5,2.2-1.1c0.4-0.5,0.6-1,0.6-1.6c-0.1-0.6-0.4-1-0.8-1.3c-1.1-0.8-2.4-0.6-3.6-0.2
	c-1.8,0.7-3.3,2.2-4.4,3.7c-1.2,1.6-2.4,3.6-2.4,5.7c0,1.8,0.8,3.2,2.2,4.3c0.6,0.5,1.3,0.8,2.1,1c0.8,0.2,1.6,0.1,2.3-0.1
	c0.6-0.1,1.2-0.5,1.7-0.8c1-0.6,1.9-1.2,2.8-1.9c0.3-0.2,0.6-0.4,0.9-0.7c0.8-0.6,2.6-1.8,3.6-1c0.5,0.4,0.7,0.9,0.7,1.6
	c-0.1,0.7-0.4,1.3-0.8,1.8c-0.3,0.5-0.8,0.9-1.3,1.2c-0.5,0.3-1.2,0.5-1.8,0.6c-0.2,0-0.4,0-0.6,0.1c-0.8,0.1-1.8,0.3-2.4,1
	c-0.4,0.5-0.6,1.1-0.5,1.7C175.2,164.9,175.6,165.4,176.1,165.8 M152.8,181c1.2,1.7,2.8,2.9,5,3.1c2.3,0.2,4.6-0.9,6.5-2.2
	c1.9-1.3,3.6-3.1,4.2-5.4c0.5-2.1-0.1-4-1.3-5.7l-5.9-8.3c-0.4-0.6-1-1.1-1.7-1.2c-0.8-0.1-1.5,0.2-2.1,0.6c-0.6,0.4-1.2,1-1.3,1.8
	c-0.2,0.7,0.1,1.4,0.5,1.9l5.7,7.9c0.5,0.7,1,1.7,0.9,2.6c-0.1,0.9-0.7,1.6-1.5,2.1c-0.7,0.5-1.6,0.9-2.5,0.7
	c-0.9-0.2-1.7-1-2.2-1.8l-5.7-7.9c-0.4-0.6-0.9-1-1.6-1.1c-0.8-0.1-1.5,0.3-2.1,0.7c-0.6,0.4-1.1,1-1.3,1.8c-0.1,0.7,0.1,1.4,0.5,2
	L152.8,181z M123.5,196.5l-1.5-6.6c-0.1-0.5-0.2-1-0.4-1.4c-0.1-0.4-0.2-0.8-0.4-1.1l-0.2-0.4l0.7-0.3l0.2,0.4
	c0.3,0.5,0.6,1.1,1,1.6c0.3,0.5,0.7,0.9,1.1,1.3l5.5,5.7c0.5,0.5,1.1,1,1.8,1.3c0.7,0.2,1.5,0.2,2.2,0c0.8-0.2,1.6-0.5,2-1.2
	c0.4-0.7,0.4-1.6,0.2-2.3l-3.1-14c-0.1-0.7-0.4-1.3-1-1.7c-0.6-0.4-1.4-0.3-2.1-0.2c-0.7,0.2-1.4,0.5-1.8,1.1
	c-0.4,0.6-0.4,1.3-0.3,2l1.5,6.6c0.1,0.5,0.2,1.1,0.4,1.6c0.1,0.3,0.2,0.7,0.3,1l0.1,0.4l-0.7,0.4l-0.2-0.3
	c-0.4-0.6-0.7-1.2-1.2-1.7c-0.3-0.4-0.7-0.8-1-1.2l-5.5-5.8c-0.5-0.5-1.1-1-1.8-1.2c-0.6-0.2-1.3-0.2-1.9-0.1
	c-0.8,0.2-1.6,0.5-2.1,1.2c-0.5,0.7-0.5,1.5-0.3,2.2l3.1,14c0.2,0.7,0.5,1.4,1.1,1.8c0.6,0.4,1.4,0.4,2.1,0.2c0.7-0.1,1.4-0.4,1.8-1
	C123.7,197.9,123.7,197.1,123.5,196.5z M95.7,180.8c-0.8,0-2.1,0-2.8,0.6c-0.7,0.6-0.8,1.7-0.8,2.6l-0.6,12.7c0,0.8,0,2,0.6,2.6
	c0.6,0.6,1.9,0.8,2.7,0.8l9.8,0.4c0.6,0,1.3,0,1.8-0.4c0.4-0.4,0.6-0.9,0.6-1.4c0-0.6-0.1-1.2-0.5-1.6c-0.5-0.5-1.2-0.6-1.8-0.6
	l-7.6-0.3l0.2-4l6.1,0.3c0.5,0,1.2,0,1.6-0.4c0.4-0.4,0.5-0.9,0.6-1.4c0-0.5,0-1.1-0.4-1.4c-0.4-0.4-1.2-0.5-1.7-0.5l-5.9-0.3
	l0.2-3.5l7.3,0.3c0.6,0,1.3,0,1.8-0.4c0.4-0.3,0.6-0.9,0.6-1.4c0-0.6-0.1-1.1-0.5-1.5c-0.5-0.4-1.2-0.6-1.8-0.6L95.7,180.8z
	 M74.4,175.5c-0.8-0.3-2-0.6-2.8-0.3c-0.8,0.4-1.3,1.4-1.6,2.2l-4.2,12c-0.3,0.8-0.6,1.9-0.2,2.7c0.4,0.8,1.6,1.3,2.3,1.6l9.3,3.3
	c0.6,0.2,1.3,0.3,1.8,0.1c0.5-0.2,0.8-0.7,1-1.2c0.2-0.5,0.3-1.1,0-1.7c-0.3-0.6-0.9-0.9-1.5-1.1l-7.2-2.6l1.3-3.7l5.7,2
	c0.5,0.2,1.1,0.3,1.6,0.1c0.5-0.2,0.8-0.7,1-1.2c0.2-0.5,0.3-1,0-1.5c-0.3-0.5-1-0.8-1.5-1l-5.6-2l1.2-3.3l6.9,2.4
	c0.6,0.2,1.3,0.3,1.8,0.1c0.5-0.2,0.8-0.6,1-1.2c0.2-0.5,0.2-1.1,0-1.6c-0.3-0.6-1-0.9-1.5-1.1L74.4,175.5z M50.7,171.7l2.8-3.7
	l2.6,1.9c0.6,0.4,1.5,1.1,1.7,1.9c0.2,0.7,0,1.3-0.4,1.9c-0.4,0.6-1,1.1-1.7,1.1c-0.8,0-1.7-0.6-2.3-1L50.7,171.7z M45.6,178.5
	l2.8-3.8l2.6,1.9c0.6,0.4,1.3,1.1,1.5,1.9c0.1,0.8-0.3,1.7-0.7,2.4c-0.1,0.2-0.3,0.4-0.4,0.7c-0.4,0.6-1.2,2.1-1,2.8
	c0.1,0.3,0.2,0.6,0.4,0.9c0.2,0.3,0.5,0.6,0.8,0.8c0.6,0.4,1.3,0.8,2,0.8c0.6,0,1-0.3,1.4-0.8c0.3-0.4,0.5-0.8,0.7-1.2
	c0.1-0.3,0.3-0.5,0.4-0.8c0.2-0.3,0.4-0.7,0.6-1c0.2-0.3,0.4-0.7,0.5-1c0.2-0.6,0.3-1.2,0.2-1.8c-0.2-0.7-0.7-1.3-1.1-1.8l-1-1.1
	l1.4,0.4c1,0.3,2,0.4,3,0.1c1-0.3,1.7-1.1,2.4-1.9c0.9-1.3,1.5-2.7,1-4.3c-0.6-1.8-2.7-3.6-4.2-4.7l-4.6-3.4
	c-0.7-0.5-1.7-1.2-2.6-1.1c-0.9,0.1-1.6,1-2.1,1.7l-8.1,11c-0.4,0.6-0.7,1.3-0.6,2c0.1,0.8,0.6,1.3,1.2,1.8c0.6,0.4,1.3,0.8,2.1,0.7
	C44.7,179.5,45.2,179.1,45.6,178.5z M32.2,168.1l4-3.1c0.7-0.5,1.5-1.3,1.6-2.2c0.1-0.9-0.3-1.7-0.8-2.4l-1.6-2.1
	c-0.4-0.5-0.9-1.1-1.6-1.3c-0.5-0.1-1,0.1-1.4,0.4c-0.3,0.3-0.7,0.6-0.7,1.1c0,0.5,0.4,1.1,0.7,1.5l0.8,1l-0.5,0.2
	c-0.8,0.4-1.6,0.4-2.5,0.1c-0.9-0.3-1.6-0.9-2.2-1.7c-0.8-1-1.2-2.3-0.8-3.5c0.4-1.4,1.7-2.6,2.8-3.5c1.2-0.9,2.8-1.9,4.3-2
	c1.4-0.1,2.5,0.5,3.3,1.6c0.7,0.9,0.8,2,0.8,3.1c0,0.1,0,0.3,0,0.4c0,0,0,0.1,0,0.1c0,0.7,0,1.5,0.5,2.1c0.4,0.5,0.9,0.9,1.5,1
	c0.6,0.1,1.1-0.1,1.6-0.5c1.1-0.9,1.4-2.2,1.3-3.5c-0.2-1.9-1.1-3.7-2.3-5.2c-1.7-2.2-3.8-3.8-6.6-4.2c-2.8-0.4-5.4,0.7-7.6,2.4
	c-2.1,1.6-4,3.7-4.5,6.4c-0.5,2.5,0.3,4.8,1.8,6.8c0.7,0.9,1.5,1.8,2.5,2.4c0.9,0.5,1.8,0.9,2.8,1l1,0.1l-0.8,0.6
	c-0.3,0.3-0.7,0.6-0.7,1.1c-0.1,0.5,0.2,0.9,0.5,1.3c0.3,0.4,0.7,0.8,1.3,0.8C31.2,168.7,31.8,168.5,32.2,168.1z"/>
<path class="st1" d="M21.5,133.9c1.1,0,2,0.9,2,2s-0.9,2-2,2c-1.1,0-2-0.9-2-2S20.4,133.9,21.5,133.9"/>
</svg>
