<svg version="1.1" id="&#xACA9;&#xB9AC;_&#xBAA8;&#xB4DC;" xmlns="http://www.w3.org/2000/svg" xmlns:xlink="http://www.w3.org/1999/xlink" x="0px" y="0px" viewBox="0 0 79.519 33.021" style="enable-background:new 0 0 79.519 33.021;" xml:space="preserve">
    <g>
        <g>
            <path style="fill:#FFFFFF;" d="M18.401,23.959l-5.948-5.949c-0.756-0.755-1.172-1.76-1.172-2.83c0-1.069,0.417-2.074,1.172-2.83
                c1.512-1.512,4.15-1.512,5.661,0.001l0.288,0.287l0.288-0.287c1.512-1.513,4.148-1.514,5.661-0.001l0,0c0,0.001,0,0.001,0,0.001
                c0.756,0.755,1.172,1.761,1.172,2.829c0,1.07-0.417,2.075-1.172,2.831L18.401,23.959z M15.283,12.378
                c-0.748,0-1.452,0.291-1.981,0.82c-0.53,0.529-0.821,1.233-0.821,1.981c0,0.749,0.292,1.453,0.821,1.982l5.1,5.101l5.1-5.1
                c0.529-0.529,0.821-1.233,0.821-1.983c0-0.748-0.292-1.452-0.821-1.98v-0.001c-1.093-1.092-2.871-1.092-3.964,0l-1.136,1.137
                l-1.136-1.137C16.736,12.669,16.032,12.378,15.283,12.378z"/>
        </g>
        <g>
            <path style="fill:#FFFFFF;" d="M48.264,23.828l-3.116-1.038c-0.983,0.604-2.107,0.92-3.269,0.92c-3.456,0-6.267-2.81-6.267-6.266
                c0-3.456,2.812-6.267,6.267-6.267c3.456,0,6.267,2.811,6.267,6.267c0,1.161-0.317,2.285-0.921,3.268L48.264,23.828z
                M41.879,12.377c-2.794,0-5.067,2.273-5.067,5.067c0,2.793,2.273,5.066,5.067,5.066c1.021,0,2.006-0.304,2.848-0.877l0.246-0.167
                l1.394,0.465l-0.465-1.394l0.167-0.246c0.574-0.842,0.877-1.827,0.877-2.848C46.945,14.651,44.672,12.377,41.879,12.377z"/>
        </g>
        <g>
            <g>
                <path style="fill:#FFFFFF;" d="M64.766,23.71c-0.038,0-0.076-0.003-0.115-0.011c-0.239-0.047-0.426-0.232-0.474-0.472
                    l-1.283-6.436l-4.664-4.586c-0.173-0.171-0.227-0.43-0.134-0.655c0.092-0.226,0.312-0.372,0.555-0.372h13.561
                    c0.221,0,0.423,0.121,0.528,0.314c0.105,0.194,0.095,0.431-0.026,0.614L65.267,23.44C65.155,23.611,64.965,23.71,64.766,23.71z
                    M60.117,12.377l3.75,3.688c0.085,0.084,0.144,0.192,0.167,0.311l1.033,5.183l6.032-9.181H60.117z"/>
            </g>
            <g>
                <path style="fill:#FFFFFF;" d="M63.447,17.093c-0.214,0-0.42-0.115-0.529-0.316c-0.157-0.292-0.048-0.655,0.244-0.813
                    l8.766-4.715c0.291-0.158,0.655-0.048,0.813,0.244c0.157,0.292,0.048,0.655-0.244,0.813l-8.766,4.715
                    C63.64,17.07,63.543,17.093,63.447,17.093z"/>
            </g>
        </g>
    </g>
</svg>
