<svg xmlns="http://www.w3.org/2000/svg" xmlns:xlink="http://www.w3.org/1999/xlink" x="0px" y="0px" viewBox="0 0 90.52 79.51" style="enable-background:new 0 0 90.52 79.51;" xml:space="preserve">
    <style>
        .kakao_ch_st0{fill:none;stroke:#FFFFFF;stroke-width:4;stroke-miterlimit:10;}
        .kakao_ch_st1{fill:#FFFFFF;}
    </style>
    <path class="kakao_ch_st0" d="M46.02,4.39c-18.49,0-33.47,13.93-33.47,31.11c0,10.15,5.23,19.16,13.32,24.84v13.65
        c0,0.19,0.11,0.37,0.28,0.46c0.07,0.04,0.15,0.06,0.24,0.06c0.11,0,0.21-0.03,0.3-0.1l11.98-8.56c2.37,0.49,4.83,0.76,7.36,0.76
        c18.49,0,33.47-13.93,33.47-31.11C79.49,18.32,64.5,4.39,46.02,4.39z"/>
    <g>
        <path class="kakao_ch_st1" d="M66.91,31.9c-1.14-1.23-2.82-1.86-4.99-1.86c-1.21,0-2.31,0.27-3.28,0.79c-0.72,0.39-1.35,0.86-1.88,1.39
            V22.15h-4.74v26.68h4.7v-9.97c0-0.83,0.11-1.58,0.34-2.23c0.22-0.65,0.53-1.2,0.9-1.64c0.37-0.44,0.82-0.78,1.31-1.01
            c0.5-0.23,1.03-0.35,1.59-0.35c0.97,0,1.73,0.26,2.25,0.78c0.52,0.52,0.79,1.49,0.79,2.87v11.54h4.7V37.48
            C68.62,35,68.04,33.12,66.91,31.9z"/>
        <path class="kakao_ch_st1" d="M36.03,27.7c3.3,0,6.12,2.14,7.24,5.15h5.05c-1.28-5.83-6.29-10.17-12.29-10.17
            c-6.96,0-12.61,5.86-12.61,13.08c0,7.23,5.64,13.08,12.61,13.08c6,0,11.02-4.35,12.29-10.18h-5.05c-1.12,3.01-3.94,5.15-7.24,5.15
            c-4.29,0-7.76-3.61-7.76-8.06S31.74,27.7,36.03,27.7z"/>
    </g>
</svg>
