<svg xmlns="http://www.w3.org/2000/svg" xmlns:xlink="http://www.w3.org/1999/xlink" x="0px" y="0px" viewBox="0 0 65.276 53.89" style="enable-background:new 0 0 65.276 53.89;" xml:space="preserve">
    <g>
        <path style="stroke:#1c1c1c;stroke-miterlimit:10;" d="M45.045,15.743c-0.128-0.196-0.341-0.366-0.634-0.503
            c-0.003-0.001-0.006-0.003-0.009-0.004c-0.253-0.114-0.568-0.188-0.992-0.232c-0.353-0.037-0.784-0.054-1.357-0.054
            c-0.599,0-1.043,0.017-1.396,0.054c-0.413,0.043-0.742,0.115-1.007,0.222c-0.002,0.001-0.005,0.002-0.007,0.003
            c-0.306,0.128-0.536,0.287-0.683,0.473c-0.168,0.21-0.256,0.458-0.256,0.715v12.82c0,1.103,0.01,2.11,0.031,3.079
            c0.003,0.133,0.006,0.267,0.009,0.402c-0.166-0.327-0.332-0.652-0.501-0.982c-0.257-0.513-0.547-1.058-0.94-1.77
            c-0.216-0.39-0.428-0.779-0.652-1.19c-0.107-0.197-0.215-0.395-0.323-0.593c-0.001-0.003-0.003-0.005-0.004-0.008l-5.66-9.981
            c-0.311-0.599-0.596-1.071-0.867-1.442c-0.308-0.429-0.649-0.772-1.013-1.019c-0.369-0.251-0.789-0.433-1.248-0.543
            c-0.434-0.104-0.955-0.154-1.592-0.154h-3.174c-0.753,0-1.396,0.213-1.909,0.631c-0.552,0.441-0.832,1.086-0.832,1.917v24.545
            c0,0.24,0.07,0.473,0.203,0.674c0.141,0.217,0.378,0.391,0.689,0.506c0.239,0.097,0.543,0.166,0.956,0.217
            c0.37,0.046,0.839,0.07,1.393,0.07c0.564,0,1.038-0.023,1.409-0.07c0.421-0.053,0.731-0.122,0.976-0.219
            c0.308-0.122,0.53-0.274,0.679-0.465c0.004-0.005,0.007-0.009,0.011-0.014c0.149-0.203,0.228-0.445,0.228-0.698V27.833
            c0-1.073-0.016-2.126-0.047-3.127c-0.001-0.033-0.002-0.065-0.003-0.098c0.473,0.946,0.867,1.701,1.238,2.371l4.012,7.086
            c0.155,0.273,0.516,0.377,0.807,0.232c0.291-0.145,0.402-0.483,0.247-0.756l-4.009-7.081c-0.376-0.679-0.781-1.455-1.273-2.442
            c-0.399-0.799-0.776-1.627-1.153-2.531c-0.09-0.214-0.31-0.356-0.556-0.356H25.79c-0.164,0-0.321,0.064-0.434,0.175
            c-0.113,0.112-0.171,0.262-0.162,0.416c0.061,1.009,0.108,2.023,0.138,3.017c0.03,0.991,0.046,2.033,0.046,3.095v14.296
            c0,0.026-0.005,0.041-0.011,0.053c-0.015,0.013-0.064,0.049-0.178,0.094c-0.14,0.056-0.365,0.103-0.669,0.141
            c-0.318,0.04-0.739,0.06-1.251,0.06c-0.502,0-0.917-0.02-1.235-0.06c-0.37-0.046-0.555-0.1-0.645-0.138
            c-0.009-0.004-0.017-0.007-0.027-0.01c-0.073-0.027-0.107-0.05-0.118-0.059c-0.015-0.024-0.022-0.05-0.022-0.081V17.584
            c0-0.495,0.135-0.843,0.417-1.068c0.298-0.242,0.668-0.36,1.13-0.36h3.174c0.529,0,0.966,0.04,1.297,0.12
            c0.317,0.076,0.593,0.195,0.842,0.364c0.251,0.17,0.494,0.419,0.726,0.742c0.239,0.325,0.503,0.767,0.786,1.311
            c0.003,0.006,0.006,0.012,0.009,0.017l5.662,9.986c0.108,0.197,0.214,0.393,0.32,0.588c0.215,0.395,0.437,0.803,0.655,1.197
            c0.386,0.698,0.67,1.232,0.922,1.735c0.298,0.579,0.583,1.143,0.876,1.721c0.271,0.528,0.543,1.077,0.831,1.679
            c0.096,0.201,0.31,0.33,0.545,0.33h0.023c0.163,0,0.319-0.062,0.431-0.173c0.113-0.11,0.172-0.259,0.165-0.411
            c-0.051-1.092-0.086-2.096-0.107-3.069c-0.021-0.961-0.031-1.961-0.031-3.057v-12.82c0-0.011,0.002-0.024,0.021-0.048
            c0,0,0.047-0.05,0.205-0.116c0.153-0.061,0.377-0.107,0.665-0.137c0.304-0.031,0.717-0.047,1.264-0.047
            c0.521,0,0.922,0.015,1.225,0.047c0.275,0.029,0.478,0.071,0.603,0.127c0.098,0.046,0.139,0.081,0.149,0.09
            c0.016,0.024,0.024,0.043,0.024,0.084v24.545c0,0.24-0.041,0.452-0.127,0.648c-0.088,0.178-0.2,0.322-0.34,0.439
            c-0.137,0.113-0.298,0.195-0.489,0.25c-0.222,0.062-0.443,0.092-0.675,0.092h-2.529c-0.462,0-0.869-0.042-1.211-0.124
            c-0.293-0.08-0.569-0.223-0.822-0.425c-0.002-0.001-0.004-0.003-0.005-0.004c-0.274-0.215-0.541-0.518-0.818-0.931
            c-0.281-0.412-0.612-0.974-0.983-1.67c-0.002-0.004-0.004-0.008-0.007-0.012l-3.361-5.934c-0.155-0.273-0.516-0.377-0.807-0.232
            c-0.291,0.145-0.402,0.483-0.248,0.757l3.357,5.928c0.394,0.738,0.735,1.316,1.04,1.763c0.341,0.508,0.687,0.897,1.057,1.188
            c0.385,0.309,0.814,0.528,1.275,0.651c0.005,0.001,0.009,0.002,0.014,0.004c0.442,0.107,0.952,0.162,1.519,0.162h2.528
            c0.349,0,0.681-0.045,1.02-0.14c0.358-0.102,0.673-0.265,0.937-0.484c0.271-0.225,0.479-0.493,0.638-0.819
            c0.003-0.006,0.005-0.012,0.008-0.017c0.148-0.332,0.223-0.698,0.223-1.087V16.417C45.248,16.174,45.18,15.947,45.045,15.743
            L45.045,15.743z M45.045,15.743"/>
    </g>
</svg>
