<svg xmlns="http://www.w3.org/2000/svg" xmlns:xlink="http://www.w3.org/1999/xlink" x="0px" y="0px" viewBox="0 0 50 50" style="enable-background:new 0 0 50 50;" xml:space="preserve">
    <path style="fill:#FFFFFF;" d="M25.663,14.899c-0.366-0.366-0.96-0.366-1.326,0l-5.625,5.625c-0.366,0.366-0.366,0.96,0,1.326
        c0.366,0.366,0.96,0.366,1.326,0l0.275-0.274v3.362c0,0.518,0.42,0.937,0.938,0.937h7.5c0.518,0,0.938-0.42,0.938-0.937v-3.362
        l0.275,0.275c0.366,0.366,0.96,0.366,1.326,0c0.366-0.366,0.366-0.96,0-1.326L25.663,14.899z M27.813,24h-1.875v-0.938
        c0-0.518-0.42-0.938-0.938-0.938s-0.938,0.42-0.938,0.938V24h-1.875v-4.299L25,16.888l2.813,2.813V24z M25,9
        c-6.203,0-11.25,5.047-11.25,11.25c0,1.894,0.48,3.768,1.388,5.417c0.006,0.012,0.014,0.024,0.021,0.036l9.041,14.847
        C24.369,40.829,24.673,41,25,41s0.63-0.171,0.801-0.45l9.041-14.847c0.007-0.011,0.014-0.024,0.021-0.036
        c0.908-1.65,1.388-3.523,1.388-5.417C36.25,14.047,31.203,9,25,9L25,9z M33.229,24.746L25,38.26l-8.229-13.514
        c-0.75-1.369-1.146-2.924-1.146-4.496c0-5.169,4.206-9.375,9.375-9.375s9.375,4.206,9.375,9.375
        C34.375,21.822,33.979,23.376,33.229,24.746L33.229,24.746z M33.229,24.746"/>
</svg>
