<svg xmlns="http://www.w3.org/2000/svg" xmlns:xlink="http://www.w3.org/1999/xlink" x="0px" y="0px" viewBox="0 0 50 50" style="enable-background:new 0 0 50 50;" xml:space="preserve">
    <g>
        <g>
            <path style="fill:#FFFFFF;stroke:#FFFFFF;stroke-width:0.5;stroke-miterlimit:10;" d="M29.082,34.791
                c0.088,0.004,0.173,0.008,0.261,0.008c0.944,0,1.732-0.341,2.351-1.013l0.016-0.016c0.221-0.265,0.47-0.506,0.735-0.759
                c0.181-0.173,0.366-0.35,0.539-0.534c0.824-0.86,0.82-1.949-0.008-2.776l-2.29-2.29c-0.394-0.41-0.864-0.627-1.362-0.627
                c-0.494,0-0.968,0.213-1.374,0.619l-1.354,1.354c-0.12-0.068-0.245-0.128-0.366-0.189c-0.153-0.076-0.293-0.149-0.418-0.225
                c-1.241-0.788-2.367-1.816-3.444-3.138c-0.542-0.683-0.9-1.254-1.153-1.84c0.354-0.321,0.683-0.655,1-0.98
                c0.117-0.117,0.233-0.237,0.354-0.358c0.86-0.86,0.86-1.924,0-2.78l-1.137-1.137c-0.133-0.132-0.261-0.265-0.39-0.394
                c-0.253-0.257-0.514-0.526-0.776-0.767c-0.394-0.394-0.86-0.599-1.354-0.599c-0.49,0-0.965,0.205-1.374,0.599l-1.426,1.422
                c-0.522,0.522-0.82,1.157-0.884,1.892c-0.072,0.916,0.096,1.888,0.53,3.062c0.671,1.812,1.68,3.495,3.174,5.295
                c1.82,2.17,4.006,3.885,6.505,5.095C26.39,34.168,27.664,34.699,29.082,34.791L29.082,34.791z M19.693,27.989
                c-1.422-1.712-2.375-3.303-3.005-5.006c-0.39-1.049-0.534-1.864-0.474-2.64c0.044-0.502,0.237-0.92,0.599-1.278l1.418-1.418
                c0.217-0.209,0.454-0.317,0.687-0.317c0.229,0,0.454,0.108,0.671,0.322c0.253,0.237,0.498,0.486,0.756,0.747
                c0.129,0.133,0.261,0.269,0.398,0.402l1.137,1.137c0.466,0.466,0.466,0.924,0,1.39c-0.12,0.12-0.241,0.241-0.358,0.362
                c-0.354,0.358-0.683,0.695-1.049,1.021l-0.02,0.02c-0.325,0.326-0.277,0.639-0.197,0.872c0.004,0.012,0.008,0.02,0.012,0.032
                c0.293,0.707,0.707,1.378,1.342,2.182c1.145,1.41,2.351,2.507,3.684,3.355c0.165,0.104,0.337,0.193,0.506,0.277
                c0.153,0.076,0.293,0.149,0.418,0.225c0.016,0.008,0.028,0.016,0.044,0.024c0.128,0.064,0.253,0.096,0.382,0.096
                c0.317,0,0.518-0.201,0.583-0.269l1.426-1.426c0.217-0.217,0.45-0.33,0.679-0.33c0.281,0,0.51,0.177,0.659,0.33l2.298,2.298
                c0.562,0.562,0.305,1.069-0.012,1.402c-0.161,0.173-0.329,0.333-0.506,0.506c-0.269,0.257-0.547,0.526-0.8,0.828
                c-0.434,0.466-0.948,0.683-1.619,0.683c-0.064,0-0.133-0.004-0.197-0.008c-1.25-0.08-2.407-0.567-3.279-0.98
                C23.497,31.681,21.42,30.054,19.693,27.989L19.693,27.989z M19.693,27.989"/>
            <path style="fill:#FFFFFF;stroke:#FFFFFF;stroke-width:0.5;stroke-miterlimit:10;" d="M25.972,18.788
                c-0.269-0.044-0.522,0.137-0.567,0.402c-0.044,0.269,0.137,0.522,0.402,0.566c1.105,0.189,2.109,0.711,2.913,1.511
                c0.8,0.799,1.322,1.808,1.511,2.913c0.04,0.241,0.249,0.41,0.486,0.41c0.028,0,0.056-0.004,0.084-0.008
                c0.269-0.044,0.45-0.301,0.402-0.567c-0.221-1.306-0.84-2.499-1.784-3.443C28.468,19.623,27.278,19.009,25.972,18.788
                L25.972,18.788z M25.972,18.788"/>
            <path style="fill:#FFFFFF;stroke:#FFFFFF;stroke-width:0.5;stroke-miterlimit:10;" d="M34.294,24.421
                c0.028,0,0.056-0.004,0.084-0.008c0.269-0.044,0.45-0.301,0.402-0.567c-0.366-2.162-1.386-4.126-2.949-5.689
                c-1.567-1.563-3.532-2.583-5.693-2.949c-0.269-0.044-0.522,0.137-0.567,0.402c-0.044,0.269,0.137,0.522,0.402,0.567
                c1.957,0.333,3.741,1.258,5.159,2.676c1.418,1.418,2.342,3.202,2.676,5.159C33.848,24.252,34.057,24.421,34.294,24.421
                L34.294,24.421z M34.294,24.421"/>
        </g>
    </g>
</svg>
